<?xml version="1.0" encoding="UTF-8" standalone="no"?>
<!-- Created with Inkscape (http://www.inkscape.org/) -->

<svg
   width="210mm"
   height="297mm"
   viewBox="0 0 210 297"
   version="1.1"
   id="svg1015"
   inkscape:version="1.1 (c68e22c387, 2021-05-23)"
   sodipodi:docname="arroser.svg"
   xmlns:inkscape="http://www.inkscape.org/namespaces/inkscape"
   xmlns:sodipodi="http://sodipodi.sourceforge.net/DTD/sodipodi-0.dtd"
   xmlns="http://www.w3.org/2000/svg"
   xmlns:svg="http://www.w3.org/2000/svg">
  <sodipodi:namedview
     id="namedview1017"
     pagecolor="#ffffff"
     bordercolor="#999999"
     borderopacity="1"
     inkscape:pageshadow="0"
     inkscape:pageopacity="0"
     inkscape:pagecheckerboard="0"
     inkscape:document-units="mm"
     showgrid="false"
     inkscape:zoom="1.0074671"
     inkscape:cx="341.45037"
     inkscape:cy="596.04927"
     inkscape:window-width="1920"
     inkscape:window-height="1001"
     inkscape:window-x="-9"
     inkscape:window-y="-9"
     inkscape:window-maximized="1"
     inkscape:current-layer="layer1" />
  <defs
     id="defs1012">
    <inkscape:path-effect
       effect="spiro"
       id="path-effect2109"
       is_visible="true"
       lpeversion="1" />
    <inkscape:path-effect
       effect="spiro"
       id="path-effect2195"
       is_visible="true"
       lpeversion="1" />
    <inkscape:path-effect
       effect="spiro"
       id="path-effect2201"
       is_visible="true"
       lpeversion="1" />
  </defs>
  <g
     inkscape:label="Calque 1"
     inkscape:groupmode="layer"
     id="layer1">
    <path
       id="rect1138"
       clip-path="none"
       style="opacity:0.995475;fill:#008000;stroke:#1c2422;stroke-width:8.18513;stroke-miterlimit:4;stroke-dasharray:none"
       d="M 627.39844 258.30664 C 602.43446 258.48727 573.28903 267.97323 545.67383 285.66406 L 526.76367 277.24609 C 509.56697 269.58979 489.4566 272.34284 472.90234 282.8418 C 462.96971 289.1411 454.31756 298.22851 448.34375 309.5293 L 369.85742 458.00391 C 353.92717 488.1394 363.25284 522.26163 390.76758 534.51172 L 415.68359 545.60352 L 317.02734 602 C 304.09007 594.72581 300.08956 584.98518 283.23242 588.70117 L 328.21484 681.44922 C 338.48826 671.98902 336.02589 665.33817 339.13672 653.33594 L 477.95312 573.32812 L 564.93555 612.05469 C 592.45024 624.30482 627.42525 609.90706 643.35547 579.77148 L 721.8418 431.29688 C 737.77198 401.16134 728.44637 367.03919 700.93164 354.78906 L 683.11523 346.85742 C 697.59854 308.74538 687.98413 276.60111 658.3125 263.93164 C 649.22955 260.06475 638.7457 258.22454 627.39844 258.30664 z M 623.57617 276.69922 A 45.575134 50.368419 73.088079 0 1 645.58008 282.04492 A 45.575134 50.368419 73.088079 0 1 668.57031 330.04297 L 587.51953 289.24023 A 45.575134 50.368419 73.088079 0 1 623.57617 276.69922 z "
       transform="scale(0.26458333)" />
    <path
       style="fill:none;stroke:#000000;stroke-width:0.94747;stroke-linecap:butt;stroke-linejoin:miter;stroke-miterlimit:4;stroke-dasharray:none;stroke-opacity:1"
       d="m 71.238049,167.25241 c -9.308986,5.33589 -17.004616,13.44577 -21.845548,23.02149 -5.18057,10.24754 -7.056433,22.13403 -5.283473,33.47894"
       id="path2107"
       sodipodi:nodetypes="csc"
       inkscape:original-d="m 71.238049,167.25241 c -7.281384,7.67395 -14.56323,15.34778 -21.845548,23.02149 -7.282315,7.67371 -2.825656,21.9737 -5.283473,33.47894"
       inkscape:path-effect="#path-effect2109" />
    <path
       style="fill:none;stroke:#000000;stroke-width:0.94747;stroke-linecap:butt;stroke-linejoin:miter;stroke-miterlimit:4;stroke-dasharray:none;stroke-opacity:1"
       d="m 74.631788,172.95001 c -8.374315,6.65631 -14.968498,15.53146 -18.924476,25.47057 -3.604646,9.05641 -5.019732,18.97557 -4.091355,28.67867"
       id="path2191"
       sodipodi:nodetypes="csc"
       inkscape:original-d="m 74.631788,172.95001 c -6.307675,8.49023 -12.615831,16.98043 -18.924476,25.47057 -6.308652,8.49013 -3.175425,17.15471 -4.091355,28.67867"
       inkscape:path-effect="#path-effect2195" />
    <path
       style="fill:none;stroke:#000000;stroke-width:0.94747;stroke-linecap:butt;stroke-linejoin:miter;stroke-miterlimit:4;stroke-dasharray:none;stroke-opacity:1"
       d="m 78.021567,179.5429 c -7.317589,7.71885 -12.475454,17.46409 -14.743192,27.85568 -1.209389,5.54185 -1.609367,11.25966 -1.18332,16.91592"
       id="path2197"
       sodipodi:nodetypes="csc"
       inkscape:original-d="m 78.021567,179.5429 c -4.913903,9.28518 -9.828294,18.57042 -14.743192,27.85568 -4.914906,9.28525 -2.228516,5.68085 -1.18332,16.91592"
       inkscape:path-effect="#path-effect2201" />
  </g>
</svg>
