<?xml version="1.0" encoding="UTF-8" standalone="no"?>
<!-- Created with Inkscape (http://www.inkscape.org/) -->

<svg
   width="210mm"
   height="297mm"
   viewBox="0 0 210 297"
   version="1.1"
   id="svg3688"
   inkscape:version="1.1 (c68e22c387, 2021-05-23)"
   sodipodi:docname="capteur humidité.svg"
   xmlns:inkscape="http://www.inkscape.org/namespaces/inkscape"
   xmlns:sodipodi="http://sodipodi.sourceforge.net/DTD/sodipodi-0.dtd"
   xmlns="http://www.w3.org/2000/svg"
   xmlns:svg="http://www.w3.org/2000/svg">
  <sodipodi:namedview
     id="namedview3690"
     pagecolor="#ffffff"
     bordercolor="#999999"
     borderopacity="1"
     inkscape:pageshadow="0"
     inkscape:pageopacity="0"
     inkscape:pagecheckerboard="0"
     inkscape:document-units="mm"
     showgrid="false"
     inkscape:zoom="1.3182814"
     inkscape:cx="398.24578"
     inkscape:cy="227.9483"
     inkscape:window-width="1920"
     inkscape:window-height="1001"
     inkscape:window-x="-9"
     inkscape:window-y="-9"
     inkscape:window-maximized="1"
     inkscape:current-layer="layer1" />
  <defs
     id="defs3685" />
  <g
     inkscape:label="Calque 1"
     inkscape:groupmode="layer"
     id="layer1">
    <rect
       style="fill:#ffffff;fill-opacity:1;stroke:#000000;stroke-width:1.06129;stroke-miterlimit:4;stroke-dasharray:none"
       id="rect3921"
       width="44.589729"
       height="18.648161"
       x="-18.040737"
       y="101.77538"
       ry="0"
       transform="matrix(0.9870648,-0.1603218,0.60368022,0.79722656,0,0)" />
    <rect
       style="fill:#ffffff;fill-opacity:1;stroke:#000000;stroke-width:1.27669;stroke-miterlimit:4;stroke-dasharray:none"
       id="rect4280"
       width="18.361559"
       height="19.044464"
       x="67.867386"
       y="32.119987"
       ry="0"
       transform="matrix(0.63294874,0.7741937,0.00329527,0.99999457,0,0)" />
    <rect
       style="fill:#ffffff;fill-opacity:1;stroke:#000000;stroke-width:0.990133;stroke-miterlimit:4;stroke-dasharray:none"
       id="rect4585"
       width="44.719753"
       height="18.216488"
       x="-101.40094"
       y="109.79198"
       transform="matrix(-0.98405287,0.17787622,-0.00804776,0.99996762,0,0)" />
    <path
       id="path969"
       style="fill:#48d8f5;fill-opacity:1;stroke:#000000;stroke-width:0.8;stroke-miterlimit:4;stroke-dasharray:none"
       d="m 69.251832,82.036382 0.738846,7.2527 0.0056,-0.0027 a 2.6237698,2.7006454 38.91036 0 0 0.278022,0.875674 2.6237698,2.7006454 38.91036 0 0 3.582054,1.027234 2.6237698,2.7006454 38.91036 0 0 1.122566,-3.634372 2.6237698,2.7006454 38.91036 0 0 -0.742031,-0.864142 z" />
  </g>
</svg>
