<?xml version="1.0" encoding="UTF-8" standalone="no"?>
<!-- Created with Inkscape (http://www.inkscape.org/) -->

<svg
   width="210mm"
   height="297mm"
   viewBox="0 0 210 297"
   version="1.1"
   id="svg3688"
   inkscape:version="1.1 (c68e22c387, 2021-05-23)"
   sodipodi:docname="capteur  humidité air.svg"
   inkscape:export-filename="C:\Users\jean_\OneDrive\Images\sprites projet serre\capteur  humidité sol.png"
   inkscape:export-xdpi="96"
   inkscape:export-ydpi="96"
   xmlns:inkscape="http://www.inkscape.org/namespaces/inkscape"
   xmlns:sodipodi="http://sodipodi.sourceforge.net/DTD/sodipodi-0.dtd"
   xmlns="http://www.w3.org/2000/svg"
   xmlns:svg="http://www.w3.org/2000/svg">
  <sodipodi:namedview
     id="namedview3690"
     pagecolor="#ffffff"
     bordercolor="#999999"
     borderopacity="1"
     inkscape:pageshadow="0"
     inkscape:pageopacity="0"
     inkscape:pagecheckerboard="0"
     inkscape:document-units="mm"
     showgrid="false"
     inkscape:zoom="4.0586935"
     inkscape:cx="252.69703"
     inkscape:cy="332.27563"
     inkscape:window-width="1920"
     inkscape:window-height="1001"
     inkscape:window-x="-9"
     inkscape:window-y="-9"
     inkscape:window-maximized="1"
     inkscape:current-layer="layer1"
     inkscape:rotation="-1" />
  <defs
     id="defs3685">
    <inkscape:path-effect
       effect="spiro"
       id="path-effect2201"
       is_visible="true"
       lpeversion="1" />
    <inkscape:path-effect
       effect="spiro"
       id="path-effect2195"
       is_visible="true"
       lpeversion="1" />
    <inkscape:path-effect
       effect="spiro"
       id="path-effect2109"
       is_visible="true"
       lpeversion="1" />
    <inkscape:path-effect
       effect="spiro"
       id="path-effect3388"
       is_visible="true"
       lpeversion="1" />
  </defs>
  <g
     inkscape:label="Calque 1"
     inkscape:groupmode="layer"
     id="layer1">
    <rect
       style="fill:#ffffff;fill-opacity:1;stroke:#000000;stroke-width:1.06129;stroke-miterlimit:4;stroke-dasharray:none"
       id="rect3921"
       width="44.589729"
       height="18.648161"
       x="-18.040737"
       y="101.77538"
       ry="0"
       transform="matrix(0.9870648,-0.1603218,0.60368022,0.79722656,0,0)"
       sodipodi:insensitive="true" />
    <rect
       style="fill:#ffffff;fill-opacity:1;stroke:#000000;stroke-width:1.27669;stroke-miterlimit:4;stroke-dasharray:none"
       id="rect4280"
       width="18.361559"
       height="19.044464"
       x="67.867386"
       y="32.119987"
       ry="0"
       transform="matrix(0.63294874,0.7741937,0.00329527,0.99999457,0,0)" />
    <rect
       style="fill:#ffffff;fill-opacity:1;stroke:#000000;stroke-width:0.990133;stroke-miterlimit:4;stroke-dasharray:none"
       id="rect4585"
       width="44.719753"
       height="18.216488"
       x="-101.40094"
       y="109.79198"
       transform="matrix(-0.98405287,0.17787622,-0.00804776,0.99996762,0,0)" />
    <path
       style="opacity:0.995475;fill:#00ff00;stroke:#1c2422;stroke-width:0;stroke-miterlimit:4;stroke-dasharray:none"
       d="m 253.81983,346.11548 c -0.0299,-0.03 -0.0545,-0.15864 -0.0545,-0.28596 0,-0.20274 0.0304,-0.23149 0.2451,-0.23149 0.26935,0 0.29156,0.0538 0.15029,0.36382 -0.0922,0.2023 -0.2301,0.26445 -0.34093,0.15363 z"
       id="path5119"
       transform="scale(0.26458333)" />
    <path
       style="opacity:0.995475;fill:#00ff00;stroke:#1c2422;stroke-width:0;stroke-miterlimit:4;stroke-dasharray:none"
       d="m 253.92877,345.8091 c 0,-0.25791 0.0244,-0.29277 0.20449,-0.29277 0.19756,0 0.20089,0.009 0.0984,0.25996 -0.15252,0.37378 -0.3029,0.39007 -0.3029,0.0328 z"
       id="path5158"
       transform="scale(0.26458333)" />
    <g
       inkscape:label="Calque 1"
       id="layer1-0"
       transform="matrix(0.43165191,-0.09231136,0.06113745,0.28588135,23.480899,72.53727)">
      <path
         id="path3598"
         style="opacity:0.995475;fill:#ffffff;stroke:#1c2422;stroke-width:0.7"
         d="m 96.013152,64.740043 a 8.5954427,8.4125614 0 0 0 -6.895187,3.399277 8.5954427,8.4125614 0 0 0 -5.906616,-2.301669 8.5954427,8.4125614 0 0 0 -8.478033,7.048148 8.5954427,8.4125614 0 0 0 -4.872572,7.581966 8.5954427,8.4125614 0 0 0 4.763016,7.526674 8.5954427,8.4125614 0 0 0 8.587589,8.201567 8.5954427,8.4125614 0 0 0 4.525822,-1.267624 8.5954427,8.4125614 0 0 0 1.691886,0.170016 8.5954427,8.4125614 0 0 0 2.978113,-0.526066 8.5954427,8.4125614 0 0 0 7.629,4.549593 8.5954427,8.4125614 0 0 0 6.56652,-2.992065 8.5954427,8.4125614 0 0 0 6.23528,2.626196 8.5954427,8.4125614 0 0 0 8.59534,-8.412408 8.5954427,8.4125614 0 0 0 -0.0915,-1.222148 8.5954427,8.4125614 0 0 0 0.0145,-0.02222 8.5954427,8.4125614 0 0 0 7.02645,-8.265644 8.5954427,8.4125614 0 0 0 -8.59534,-8.412409 8.5954427,8.4125614 0 0 0 -1.7508,0.180869 8.5954427,8.4125614 0 0 0 -8.12457,-5.667354 8.5954427,8.4125614 0 0 0 -6.1619,2.554365 8.5954427,8.4125614 0 0 0 -7.736998,-4.749064 z" />
      <path
         id="path969"
         style="fill:#280b0b;fill-opacity:0.00389105;stroke:#000000;stroke-width:0.345143;stroke-miterlimit:4;stroke-dasharray:none"
         d="m 97.482742,73.507944 -5.12766,10.2852 0.0121,5.1e-4 a 5.048543,4.0435423 0 0 0 -0.30555,1.38226 5.048543,4.0435423 0 0 0 5.04854,4.04351 5.048543,4.0435423 0 0 0 5.048548,-4.04351 5.048543,4.0435423 0 0 0 -0.47511,-1.71195 z"
         inkscape:export-filename="C:\Users\jean_\OneDrive\Images\sprites projet serre\goutte.png"
         inkscape:export-xdpi="96"
         inkscape:export-ydpi="96" />
    </g>
    <path
       style="opacity:0.995475;fill:#5ebad7;fill-opacity:1;stroke:#1c2422;stroke-width:0;stroke-miterlimit:4;stroke-dasharray:none"
       d="m 263.88561,336.7767 c -2.00626,-0.19974 -3.25349,-0.63113 -4.12632,-1.42719 -0.83642,-0.76285 -1.07597,-1.71705 -0.6907,-2.75135 0.0785,-0.21073 1.38786,-3.06474 2.90971,-6.34225 l 2.76699,-5.9591 h 0.16729 c 0.15082,0 0.58801,0.42678 4.44099,4.33521 2.35053,2.38436 4.43851,4.49176 4.63995,4.68309 0.20144,0.19134 0.42683,0.45111 0.50087,0.57727 1.53694,2.61889 -2.45194,6.01679 -7.95949,6.78025 -0.59973,0.0831 -2.22017,0.14679 -2.64929,0.10407 z"
       id="path6814"
       transform="scale(0.26458333)" />
    <path
       style="opacity:0.995475;fill:#5ebad7;fill-opacity:1;stroke:#1c2422;stroke-width:0;stroke-miterlimit:4;stroke-dasharray:none"
       d=""
       id="path7667"
       transform="scale(0.26458333)" />
    <path
       style="opacity:0.995475;fill:#e3eff3;fill-opacity:1;stroke:#1c2422;stroke-width:0;stroke-miterlimit:4;stroke-dasharray:none"
       d="m 240.30332,348.97145 c -3.90604,-0.44029 -7.08824,-2.24242 -8.32501,-4.71458 -0.29571,-0.5911 -0.53766,-1.16141 -0.53766,-1.26736 0,-0.11832 -0.30675,-0.23237 -0.7952,-0.29565 -3.85307,-0.49919 -6.979,-2.31356 -8.17744,-4.74638 -0.42003,-0.85266 -0.5019,-1.2008 -0.54667,-2.32464 -0.0635,-1.59509 0.26647,-2.74825 1.19185,-4.1645 0.77139,-1.18057 2.84607,-3.14694 4.04786,-3.83653 0.89615,-0.51421 0.92706,-0.55287 1.02929,-1.28746 0.49917,-3.58661 3.83173,-6.92159 8.79033,-8.79671 3.82935,-1.44808 8.94106,-1.65942 12.28766,-0.50802 l 0.84994,0.29242 0.23522,-0.34077 c 0.4888,-0.70816 1.77886,-1.97081 2.73713,-2.679 1.95353,-1.44372 4.18407,-2.45552 6.96804,-3.16081 1.47657,-0.37408 1.83242,-0.40474 4.62886,-0.39892 2.64572,0.005 3.18278,0.0487 4.24106,0.34087 1.53295,0.42326 3.44161,1.33486 4.29326,2.05052 0.36193,0.30413 0.73938,0.55297 0.83876,0.55297 0.0994,0 0.51893,-0.34565 0.93233,-0.76812 3.15909,-3.22839 9.63323,-5.2883 14.75083,-4.69335 3.08962,0.35919 5.44393,1.306 7.16489,2.88143 l 0.95002,0.86968 0.60586,-0.21379 c 0.33323,-0.11759 1.32155,-0.39666 2.19626,-0.62016 1.47095,-0.37584 1.81793,-0.40588 4.61973,-0.40005 2.64773,0.006 3.18094,0.0484 4.23288,0.34073 3.69986,1.02807 6.18482,3.23163 6.74547,5.98159 0.73393,3.59989 -2.7678,8.07097 -7.92065,10.11326 -1.7932,0.71072 -1.80728,0.72816 -1.43661,1.77896 0.24118,0.68373 0.29096,1.13186 0.24179,2.17667 -0.0553,1.17537 -0.12962,1.45229 -0.69677,2.59684 -1.09144,2.20261 -3.25893,4.21103 -6.06451,5.61943 -4.56567,2.29195 -10.51549,2.7804 -14.69686,1.20654 l -0.98379,-0.3703 -0.6594,0.7538 c -1.98159,2.26526 -5.68723,4.1998 -9.63216,5.02849 -2.06664,0.43414 -5.51107,0.46632 -7.37466,0.0689 -1.95396,-0.41668 -3.72311,-1.17402 -4.88908,-2.09292 l -0.5723,-0.45102 -1.2453,0.5316 c -1.77298,0.75685 -3.02247,1.11199 -4.90306,1.39355 -0.90396,0.13535 -1.84805,0.35411 -2.09796,0.48615 -0.24992,0.13204 -0.99968,0.53318 -1.66614,0.89144 -3.15661,1.69685 -7.7676,2.57989 -11.35809,2.17518 z m 27.96993,-12.1704 c 2.67084,-0.67906 4.60772,-1.69413 5.93,-3.10775 0.80051,-0.85582 1.11927,-1.43001 1.25093,-2.25339 0.19701,-1.23205 0.0603,-1.40884 -5.44077,-7.03359 -2.83613,-2.89991 -5.22325,-5.25035 -5.30472,-5.22319 -0.0815,0.0272 -1.54768,3.04456 -3.25826,6.70535 -3.03755,6.50064 -3.11031,6.67923 -3.11732,7.65162 -0.006,0.81307 0.0602,1.094 0.36045,1.53214 0.69482,1.01403 2.22151,1.7942 4.09653,2.09341 1.31837,0.21038 3.89577,0.039 5.48316,-0.3646 z"
       id="path7784"
       transform="scale(0.26458333)" />
  </g>
</svg>
