<?xml version="1.0" encoding="UTF-8" standalone="no"?>
<!-- Created with Inkscape (http://www.inkscape.org/) -->

<svg
   width="210mm"
   height="297mm"
   viewBox="0 0 210 297"
   version="1.1"
   id="svg3688"
   inkscape:version="1.1 (c68e22c387, 2021-05-23)"
   sodipodi:docname="capteur température.svg"
   xmlns:inkscape="http://www.inkscape.org/namespaces/inkscape"
   xmlns:sodipodi="http://sodipodi.sourceforge.net/DTD/sodipodi-0.dtd"
   xmlns="http://www.w3.org/2000/svg"
   xmlns:svg="http://www.w3.org/2000/svg">
  <sodipodi:namedview
     id="namedview3690"
     pagecolor="#ffffff"
     bordercolor="#999999"
     borderopacity="1"
     inkscape:pageshadow="0"
     inkscape:pageopacity="0"
     inkscape:pagecheckerboard="0"
     inkscape:document-units="mm"
     showgrid="false"
     inkscape:zoom="2.4865144"
     inkscape:cx="398.54987"
     inkscape:cy="307.4585"
     inkscape:window-width="1920"
     inkscape:window-height="1001"
     inkscape:window-x="-9"
     inkscape:window-y="-9"
     inkscape:window-maximized="1"
     inkscape:current-layer="layer1" />
  <defs
     id="defs3685" />
  <g
     inkscape:label="Calque 1"
     inkscape:groupmode="layer"
     id="layer1">
    <rect
       style="fill:#ffffff;fill-opacity:1;stroke:#000000;stroke-width:1.06129;stroke-miterlimit:4;stroke-dasharray:none"
       id="rect3921"
       width="44.589729"
       height="18.648161"
       x="-18.040737"
       y="101.77538"
       ry="0"
       transform="matrix(0.9870648,-0.1603218,0.60368022,0.79722656,0,0)"
       sodipodi:insensitive="true" />
    <rect
       style="fill:#ffffff;fill-opacity:1;stroke:#000000;stroke-width:1.27669;stroke-miterlimit:4;stroke-dasharray:none"
       id="rect4280"
       width="18.361559"
       height="19.044464"
       x="67.867386"
       y="32.119987"
       ry="0"
       transform="matrix(0.63294874,0.7741937,0.00329527,0.99999457,0,0)" />
    <rect
       style="fill:#ffffff;fill-opacity:1;stroke:#000000;stroke-width:0.990133;stroke-miterlimit:4;stroke-dasharray:none"
       id="rect4585"
       width="44.719753"
       height="18.216488"
       x="-101.40094"
       y="109.79198"
       transform="matrix(-0.98405287,0.17787622,-0.00804776,0.99996762,0,0)" />
    <path
       id="path1528"
       style="fill:#ff2929;fill-opacity:1;stroke:#000000;stroke-width:0.8;stroke-miterlimit:4;stroke-dasharray:none"
       d="m 66.667678,82.641402 c -0.6881,0.137238 -1.032054,0.517562 -0.771288,0.852737 l 4.776429,6.139126 a 1.4412274,3.0502203 87.843836 0 0 -0.702593,1.523295 1.4412274,3.0502203 87.843836 0 0 3.900703,0.754587 1.4412274,3.0502203 87.843836 0 0 1.836279,-1.898805 1.4412274,3.0502203 87.843836 0 0 -2.547679,-0.871171 l -4.779034,-6.142477 c -0.260774,-0.335174 -1.0247,-0.494532 -1.712817,-0.357292 z m 3.184561,2.074842 1.303748,-0.260025 z m 1.187736,1.547764 1.303748,-0.260026 z m 1.161945,1.456855 1.303748,-0.260026 z" />
  </g>
</svg>
