<?xml version="1.0" encoding="UTF-8" standalone="no"?>
<!-- Created with Inkscape (http://www.inkscape.org/) -->

<svg
   width="210mm"
   height="297mm"
   viewBox="0 0 210 297"
   version="1.1"
   id="svg5"
   inkscape:version="1.1 (c68e22c387, 2021-05-23)"
   sodipodi:docname="humidité sol.svg"
   xmlns:inkscape="http://www.inkscape.org/namespaces/inkscape"
   xmlns:sodipodi="http://sodipodi.sourceforge.net/DTD/sodipodi-0.dtd"
   xmlns="http://www.w3.org/2000/svg"
   xmlns:svg="http://www.w3.org/2000/svg">
  <sodipodi:namedview
     id="namedview7"
     pagecolor="#ffffff"
     bordercolor="#999999"
     borderopacity="1"
     inkscape:pageshadow="0"
     inkscape:pageopacity="0"
     inkscape:pagecheckerboard="0"
     inkscape:document-units="mm"
     showgrid="false"
     inkscape:zoom="1.2316035"
     inkscape:cx="397.04335"
     inkscape:cy="457.5336"
     inkscape:window-width="1920"
     inkscape:window-height="1001"
     inkscape:window-x="-9"
     inkscape:window-y="-9"
     inkscape:window-maximized="1"
     inkscape:current-layer="layer1" />
  <defs
     id="defs2">
    <inkscape:path-effect
       effect="spiro"
       id="path-effect859"
       is_visible="true"
       lpeversion="1" />
  </defs>
  <g
     inkscape:label="Calque 1"
     inkscape:groupmode="layer"
     id="layer1">
    <path
       style="fill:none;stroke:#000000;stroke-width:1.6;stroke-linecap:butt;stroke-linejoin:miter;stroke-opacity:1;stroke-miterlimit:4;stroke-dasharray:none"
       d="m 39.502463,159.4729 c 3.310162,-4.95519 6.33519,-10.14253 8.412562,-15.72783 2.394772,-6.43867 3.492246,-13.29972 5.852216,-19.75123 2.864564,-7.83093 7.619643,-14.99654 13.899014,-20.48276 3.563057,-3.11301 7.680763,-5.715102 12.268236,-6.873239 4.587472,-1.158136 9.687544,-0.753151 13.700975,1.752553 2.536921,1.583875 4.522001,3.902796 6.346304,6.272716 1.8243,2.36993 3.54576,4.84529 5.72389,6.89477 1.18425,1.1143 2.5104,2.10192 4.00811,2.73512 1.49772,0.6332 3.18003,0.89644 4.77022,0.55675 1.94128,-0.41469 3.58956,-1.67465 5.04105,-3.0288 1.45149,-1.35415 2.79675,-2.85076 4.4688,-3.92071 2.20879,-1.41341 4.8961,-1.99629 7.51456,-1.85425 2.61845,0.14204 5.16997,0.98219 7.48174,2.22002 5.60922,3.00345 9.78875,8.32516 12.0702,14.26478 0.78776,2.0509 1.36484,4.17637 2.10142,6.2462 0.73658,2.06984 1.64755,4.10784 3.01927,5.82399 2.1034,2.63154 5.16417,4.35681 7.31527,6.94951 1.54136,1.85778 2.55754,4.09294 3.39235,6.35794 0.83481,2.26499 1.50765,4.59135 2.45987,6.80955 0.56456,1.31515 1.23286,2.61083 1.46305,4.0234 0.30592,1.87732 -0.2054,3.83337 -1.19365,5.45857 -0.98824,1.62521 -2.42713,2.94046 -4.00877,3.99701 -3.1633,2.1131 -6.8868,3.23585 -10.15964,5.17496 -2.54574,1.50832 -4.85117,3.52448 -7.68104,4.38916 -3.12819,0.95584 -6.50125,0.38326 -9.69388,-0.32827 -3.19264,-0.71152 -6.44856,-1.56134 -9.69159,-1.13478 -2.22478,0.29263 -4.32306,1.17371 -6.39393,2.03786 -2.07087,0.86416 -4.17858,1.72884 -6.40779,1.98554 -2.14042,0.24647 -4.30362,-0.0787 -6.41964,-0.48439 -2.11603,-0.40569 -4.22917,-0.89436 -6.38208,-0.97867 -3.966295,-0.15533 -7.837135,1.06242 -11.719178,1.89029 -1.941022,0.41393 -3.912773,0.73313 -5.897441,0.73338 -1.984668,2.5e-4 -3.990687,-0.32798 -5.792252,-1.16061 -1.977888,-0.91412 -3.632599,-2.39305 -5.216278,-3.88958 -1.583678,-1.49654 -3.149426,-3.04839 -5.025102,-4.15722 -3.632291,-2.14727 -8.051223,-2.42543 -12.26999,-2.34592 -4.218766,0.0795 -8.511041,0.4537 -12.601931,-0.58019 -1.667399,-0.4214 -3.31756,-1.10024 -4.556468,-2.29309 -0.619455,-0.59643 -1.126242,-1.3171 -1.431035,-2.12118 -0.304793,-0.80409 -0.40249,-1.69271 -0.230478,-2.53524 0.21961,-1.07567 0.853217,-2.0132 1.463056,-2.92611 z"
       id="path857"
       inkscape:path-effect="#path-effect859"
       inkscape:original-d="m 39.502463,159.4729 c 0.487421,-0.97563 5.608638,-10.48495 8.412562,-15.72783 2.803922,-5.24287 3.901742,-13.16722 5.852216,-19.75123 1.950473,-6.58401 9.266274,-13.65491 13.899014,-20.48276 4.632741,-6.827849 17.313071,-3.41353 25.969211,-5.120686 8.656144,-1.707163 8.047064,8.778586 12.070194,13.167486 4.02314,4.3889 5.85249,2.19485 8.77833,3.29187 2.92584,1.09703 6.34017,-4.63274 9.50985,-6.94951 3.16969,-2.31676 9.9978,0.24411 14.9963,0.36577 4.99851,0.12165 8.04707,9.51012 12.0702,14.26478 4.02314,4.75466 3.41406,8.04706 5.12069,12.07019 1.70664,4.02314 4.87711,4.63327 7.31527,6.94951 2.43816,2.31624 3.90175,8.77859 5.85222,13.16749 1.95047,4.3889 0.97563,2.68253 1.46305,4.0234 0.48742,1.34087 -10.24111,9.75396 -15.36206,14.63054 -5.12096,4.87658 -5.12043,2.92637 -7.68104,4.38916 -2.56061,1.46279 -12.92338,-0.9751 -19.38547,-1.46305 -6.46208,-0.48795 -8.53422,2.68253 -12.80172,4.0234 -4.26751,1.34087 -8.53422,-0.97511 -12.80172,-1.46306 -4.267511,-0.48795 -15.605652,0.97564 -23.408871,1.46306 -7.803221,0.48742 -6.827322,-5.36427 -10.24138,-8.0468 -3.414057,-2.68253 -16.581014,-1.95048 -24.871921,-2.92611 -8.290904,-0.97563 -4.145055,-4.63274 -6.217981,-6.94951 -2.072923,-2.31676 0.975635,-1.95047 1.463056,-2.92611 z" />
    <path
       id="path969"
       style="fill:#280b0b;fill-opacity:0.00389105;stroke:#000000;stroke-width:0.906969;stroke-miterlimit:4;stroke-dasharray:none"
       d="m 108.11618,122.33122 -10.524096,20.57165 0.02489,0.001 a 10.3617,8.0875766 0 0 0 -0.627111,2.76471 10.3617,8.0875766 0 0 0 10.361707,8.08751 10.3617,8.0875766 0 0 0 10.36171,-8.08751 10.3617,8.0875766 0 0 0 -0.97513,-3.42411 z"
       inkscape:export-filename="C:\Users\jean_\OneDrive\Images\sprites projet serre\goutte.png"
       inkscape:export-xdpi="96"
       inkscape:export-ydpi="96" />
    <path
       style="opacity:0.995475;fill:#84d01a;fill-opacity:1;stroke:#060000;stroke-width:4.1799;stroke-miterlimit:4;stroke-dasharray:none;stroke-opacity:1"
       d="m 322.65313,363.36142 c -9.24138,0.72944 -5.56449,12.8992 -6.31536,18.87589 -1.69789,4.09394 -10.97132,0.93332 -15.75736,1.65511 -6.95428,0.3393 0.29035,-11.08203 -6.88506,-11.93681 -12.11754,-1.10646 -21.8234,8.90915 -31.23701,15.14535 -33.39887,25.53446 -54.49412,63.93306 -65.19502,104.04533 -7.98978,28.67559 -14.85839,57.75133 -30.18505,83.57605 -6.74512,14.32133 -17.98092,26.62217 -22.46487,41.89075 0.67808,16.06951 18.99524,23.36296 32.87282,24.20572 26.55791,2.80359 54.52758,-3.02071 79.80197,7.54387 20.99373,9.54631 33.36981,35.4331 58.40157,35.97516 29.85748,1.22371 58.68438,-13.23112 88.45826,-7.06867 17.12217,4.12761 35.56676,5.23828 51.92646,-2.41777 16.03055,-6.7431 33.83529,-12.38655 51.17674,-7.83693 18.05918,3.05386 37.73571,9.37724 55.56924,2.23022 17.95497,-10.74176 36.11094,-21.13365 54.94283,-30.2916 13.87288,-7.50021 30.52185,-20.99529 26.19836,-38.79667 -6.36481,-20.71665 -12.82243,-41.97292 -24.27325,-60.52648 -13.49018,-17.1753 -34.8215,-29.1355 -40.95399,-51.1709 -8.07439,-26.82103 -20.06376,-54.44954 -43.53793,-71.26449 -5.11159,-2.62363 -15.31781,-2.52293 -12.87911,5.82395 -1.50769,6.65156 4.58758,21.19774 -6.90718,17.47908 -11.37174,3.2381 -8.57917,-7.56917 -9.03892,-15.14988 2.04155,-8.63632 -2.66862,-13.29183 -10.08755,-15.97513 -3.74109,-4.34014 -8.73854,-9.23821 -15.00405,-6.12636 -19.48769,4.60938 -28.62582,26.57755 -47.98487,30.8721 -12.82595,2.49143 -25.68039,-2.72581 -34.17693,-12.41472 -19.98187,-18.39728 -32.32118,-47.47783 -60.36178,-55.39644 -5.25924,-1.37024 -10.66391,-2.67434 -16.10296,-2.94573 z m 87.60505,104.24261 c 11.34671,26.9718 25.05867,53.14581 33.35613,81.06019 2.61652,16.2167 -13.66855,28.57112 -28.31789,30.6075 -16.88376,3.04081 -38.07053,-1.46399 -45.67364,-18.55188 -6.94658,-15.85382 6.14144,-30.39592 11.79455,-44.30239 8.89609,-17.44747 17.64612,-34.98803 27.39093,-51.98325 0.48331,1.05661 0.96661,2.11322 1.44992,3.16983 z"
       id="path3923"
       transform="scale(0.26458333)" />
    <g
       id="g3716"
       transform="matrix(0.87104689,0,0,0.74300122,-14.636007,52.087083)">
      <rect
         style="opacity:0.995475;fill:#a26c45;fill-opacity:1;stroke:#060000;stroke-width:0.530625;stroke-miterlimit:4;stroke-dasharray:none;stroke-opacity:1"
         id="rect1941"
         width="15.673024"
         height="6.5979223"
         x="-67.984375"
         y="106.67035"
         ry="0.68728358"
         transform="matrix(-0.00381181,-0.99999274,0.9999779,-0.00664898,0,0)" />
      <path
         id="path3079"
         style="opacity:0.995475;fill:#36be26;fill-opacity:1;stroke:#060000;stroke-width:0.559118;stroke-miterlimit:4;stroke-dasharray:none;stroke-opacity:1"
         d="m 106.58656,32.102635 a 5.9780694,6.0121198 0 0 0 -5.97798,6.011992 5.9780694,6.0121198 0 0 0 0.28503,1.827495 5.9780694,6.0121198 0 0 0 -4.076127,5.69586 5.9780694,6.0121198 0 0 0 5.062447,5.940341 5.9780694,6.0121198 0 0 0 5.78975,4.530154 5.9780694,6.0121198 0 0 0 5.79549,-4.550626 5.9780694,6.0121198 0 0 0 2.05757,0.370853 5.9780694,6.0121198 0 0 0 5.97837,-6.011992 5.9780694,6.0121198 0 0 0 -3.25815,-5.353353 5.9780694,6.0121198 0 0 0 0.008,-0.219678 5.9780694,6.0121198 0 0 0 -5.97798,-6.011992 5.9780694,6.0121198 0 0 0 -0.97523,0.08307 5.9780694,6.0121198 0 0 0 -4.71161,-2.312123 z" />
    </g>
    <g
       id="g3722"
       transform="matrix(0.78405372,0,0,0.66110625,49.724638,72.614923)">
      <rect
         style="opacity:0.995475;fill:#a26c45;fill-opacity:1;stroke:#060000;stroke-width:0.530625;stroke-miterlimit:4;stroke-dasharray:none;stroke-opacity:1"
         id="rect3718"
         width="15.673024"
         height="6.5979223"
         x="-67.984375"
         y="106.67035"
         ry="0.68728358"
         transform="matrix(-0.00381181,-0.99999274,0.9999779,-0.00664898,0,0)" />
      <path
         id="path3720"
         style="opacity:0.995475;fill:#36be26;fill-opacity:1;stroke:#060000;stroke-width:0.559118;stroke-miterlimit:4;stroke-dasharray:none;stroke-opacity:1"
         d="m 106.58656,32.102635 a 5.9780694,6.0121198 0 0 0 -5.97798,6.011992 5.9780694,6.0121198 0 0 0 0.28503,1.827495 5.9780694,6.0121198 0 0 0 -4.076127,5.69586 5.9780694,6.0121198 0 0 0 5.062447,5.940341 5.9780694,6.0121198 0 0 0 5.78975,4.530154 5.9780694,6.0121198 0 0 0 5.79549,-4.550626 5.9780694,6.0121198 0 0 0 2.05757,0.370853 5.9780694,6.0121198 0 0 0 5.97837,-6.011992 5.9780694,6.0121198 0 0 0 -3.25815,-5.353353 5.9780694,6.0121198 0 0 0 0.008,-0.219678 5.9780694,6.0121198 0 0 0 -5.97798,-6.011992 5.9780694,6.0121198 0 0 0 -0.97523,0.08307 5.9780694,6.0121198 0 0 0 -4.71161,-2.312123 z" />
    </g>
    <circle
       id="path15406"
       style="fill:#b3abab;stroke:#2e5822;stroke-width:0.264583"
       cx="142.99785"
       cy="110.30138"
       r="0" />
    <circle
       id="path15408"
       style="fill:#b3abab;stroke:#2e5822;stroke-width:0.264583"
       cx="142.99785"
       cy="110.30138"
       r="0" />
    <path
       style="opacity:0.995475;fill:#080000;fill-opacity:1;stroke:#000000;stroke-width:0;stroke-miterlimit:4;stroke-dasharray:none;stroke-opacity:1"
       id="path15410"
       d="m 139.55245,109.31704 c -0.19221,0.26952 -0.36572,0.55311 -0.56807,0.81542 -0.0402,0.0521 -0.0794,0.10632 -0.12936,0.14923 -0.0104,0.009 -0.055,-10e-4 -0.0413,-0.003 0.18574,-0.0198 0.37193,-0.0351 0.5579,-0.0526 0.0502,0.0413 0.0859,0.1295 0.15071,0.12406 0.0107,-7.9e-4 0.19366,-1.16171 0.20725,-1.25143 0.0107,-0.0869 0.0214,-0.17373 0.0321,-0.26059 0.009,-0.0767 -1.07597,-0.20755 -1.08522,-0.13081 v 0 c -0.0129,0.077 -0.0257,0.15391 -0.0386,0.23087 -0.0833,0.41706 -0.28086,1.26992 -0.14959,1.66105 0.0543,0.16193 0.1633,0.30005 0.24496,0.45007 0.25157,0.0171 0.50429,0.0808 0.75473,0.0514 0.10035,-0.0118 0.17369,-0.10481 0.25124,-0.16956 0.37537,-0.31339 0.61017,-0.76922 0.79083,-1.2132 0.0284,-0.0691 -0.94927,-0.47038 -0.97764,-0.40125 z" />
    <circle
       id="path15676"
       style="fill:#b3abab;stroke:#000000;stroke-width:0.264583"
       cx="167.42172"
       cy="127.76575"
       r="0" />
    <circle
       id="path15678"
       style="fill:#b3abab;stroke:#000000;stroke-width:0.264583"
       cx="167.42172"
       cy="127.76575"
       r="0" />
    <path
       style="opacity:0.995475;fill:#84d01a;fill-opacity:0.996078;stroke:#000000;stroke-width:0;stroke-miterlimit:4;stroke-dasharray:none;stroke-opacity:1"
       id="path16117"
       d="m 140.41484,112.23398 c -0.31696,-0.28857 -0.50674,-0.6117 -0.48478,-0.99534 0.0638,-0.20302 0.12324,-0.41394 0.24617,-0.60037 0.03,-0.0529 -0.91906,-0.3881 -0.94911,-0.33516 v 0 c -0.19666,0.27493 -0.31484,0.58508 -0.38899,0.89385 -0.0528,0.64876 0.13461,1.09334 0.73926,1.5494 0.0459,0.0467 0.88338,-0.46567 0.83745,-0.51238 z" />
    <path
       style="opacity:0.995475;fill:#69a219;fill-opacity:0.996078;stroke:#000000;stroke-width:0;stroke-miterlimit:4;stroke-dasharray:none;stroke-opacity:1"
       id="path26385"
       d="m 71.871617,110.80398 c -0.222787,-0.24196 -0.504127,-0.41941 -0.746781,-0.63824 -0.229738,-0.20718 -0.42576,-0.45689 -0.631701,-0.68696 -0.02215,-0.0322 -0.477554,0.28115 -0.455395,0.31336 v 0 c 0.218855,0.25743 0.422357,0.53652 0.672808,0.76502 0.251601,0.22954 0.556094,0.39878 0.801294,0.63671 0.02757,0.0254 0.387344,-0.36445 0.359775,-0.38989 z" />
    <path
       style="opacity:0.995475;fill:#69a219;fill-opacity:0.996078;stroke:#000000;stroke-width:0;stroke-miterlimit:4;stroke-dasharray:none;stroke-opacity:1"
       id="path26387"
       d="m 72.855576,110.89968 c -0.04432,-0.58756 0.02029,-1.18538 0.147248,-1.75958 0.0078,-0.0389 -0.541734,-0.14924 -0.549539,-0.11038 v 0 c -0.161002,0.62641 -0.240858,1.29167 -0.123878,1.93298 0.0044,0.0372 0.530624,-0.0258 0.526169,-0.063 z" />
    <path
       style="opacity:0.995475;fill:#69a219;fill-opacity:0.996078;stroke:#000000;stroke-width:0;stroke-miterlimit:4;stroke-dasharray:none;stroke-opacity:1"
       id="path26391"
       d="m 74.025479,111.39495 c 0.307329,-0.22422 0.629822,-0.43432 0.963186,-0.61823 0.111842,-0.0617 0.231325,-0.10883 0.343099,-0.17066 0.195177,-0.10796 0.398359,-0.24706 0.585385,-0.37098 0.02951,-0.0261 -0.338876,-0.44338 -0.368385,-0.41732 v 0 c -0.653232,0.38933 -1.363244,0.69728 -1.927021,1.22006 -0.02524,0.0286 0.378484,0.38568 0.403736,0.35713 z" />
    <path
       style="opacity:0.995475;fill:#69a219;fill-opacity:0.996078;stroke:#000000;stroke-width:0;stroke-miterlimit:4;stroke-dasharray:none;stroke-opacity:1"
       id="path26539"
       d="m 88.454128,118.61706 c -0.101967,-0.51483 -0.363217,-0.97849 -0.537226,-1.4707 -0.01069,-0.0378 -0.544523,0.11341 -0.533836,0.15115 v 0 c 0.161885,0.49128 0.403865,0.94846 0.554686,1.44252 0.0087,0.0365 0.525071,-0.0864 0.516376,-0.12297 z" />
    <path
       style="opacity:0.995475;fill:#69a219;fill-opacity:0.996078;stroke:#000000;stroke-width:0;stroke-miterlimit:4;stroke-dasharray:none;stroke-opacity:1"
       id="path26551"
       d="m 89.558518,118.13072 c -0.01723,-0.63911 0.156297,-1.24979 0.329615,-1.85763 0.0097,-0.0392 -0.544851,-0.17699 -0.554593,-0.13777 v 0 c -0.201687,0.64889 -0.38154,1.30821 -0.308883,1.9954 0,0.0378 0.533861,0.0378 0.533861,0 z" />
    <path
       style="opacity:0.995475;fill:#69a219;fill-opacity:0.996078;stroke:#000000;stroke-width:0;stroke-miterlimit:4;stroke-dasharray:none;stroke-opacity:1"
       id="path26553"
       d="m 90.833307,119.011 c 0.26856,-0.2566 0.572706,-0.47755 0.821192,-0.75536 0.155538,-0.17389 0.250285,-0.32716 0.377021,-0.51636 0.01926,-0.0337 -0.457907,-0.3061 -0.477166,-0.27236 v 0 c -0.10319,0.13642 -0.230282,0.31093 -0.345913,0.43366 -0.247674,0.26287 -0.538959,0.48243 -0.778867,0.75329 -0.02527,0.0285 0.378481,0.38568 0.403733,0.35713 z" />
    <circle
       id="path26555"
       style="fill:#69a219;stroke:#000000;stroke-width:0.264583"
       cx="94.150101"
       cy="124.08904"
       r="0" />
    <circle
       id="path26557"
       style="fill:#69a219;stroke:#000000;stroke-width:0.264583"
       cx="94.150101"
       cy="124.08904"
       r="0" />
    <path
       style="opacity:0.995475;fill:#69a219;fill-opacity:0.996078;stroke:#000000;stroke-width:0;stroke-miterlimit:4;stroke-dasharray:none;stroke-opacity:1"
       id="path26559"
       d="m 126.9893,128.65083 c -0.51084,-0.30736 -0.96564,-0.68493 -1.38979,-1.101 -0.0236,-0.0315 -0.46942,0.30231 -0.44582,0.33384 v 0 c 0.4327,0.47639 0.91244,0.89583 1.49669,1.17998 0.0292,0.024 0.36811,-0.38885 0.33892,-0.41282 z" />
    <path
       style="opacity:0.995475;fill:#69a219;fill-opacity:0.996078;stroke:#000000;stroke-width:0;stroke-miterlimit:4;stroke-dasharray:none;stroke-opacity:1"
       id="path26565"
       d="m 128.55581,128.78951 c 0.0709,-0.52254 0.11376,-1.04815 0.15334,-1.57378 0.003,-0.0409 -0.57631,-0.0789 -0.57899,-0.038 v 0 c -0.0435,0.53652 -0.0976,1.07311 -0.10397,1.61177 0,0.0374 0.52962,0.0374 0.52962,0 z" />
    <path
       style="opacity:0.995475;fill:#69a219;fill-opacity:0.996078;stroke:#000000;stroke-width:0;stroke-miterlimit:4;stroke-dasharray:none;stroke-opacity:1"
       id="path26567"
       d="m 130.35668,128.54669 c 0.28047,-0.32226 0.48818,-0.69552 0.7005,-1.06341 0.0175,-0.0374 -0.51179,-0.28441 -0.52926,-0.24699 v 0 c -0.1945,0.34289 -0.38863,0.68647 -0.61756,1.00816 -0.0214,0.0316 0.42495,0.3338 0.44632,0.30224 z" />
    <path
       style="opacity:0.995475;fill:#69a219;fill-opacity:0.996078;stroke:#000000;stroke-width:0;stroke-miterlimit:4;stroke-dasharray:none;stroke-opacity:1"
       id="path26569"
       d="m 146.68615,143.68334 c 0.38113,0.53436 0.8217,1.02547 1.28182,1.49293 0.0543,0.0557 0.10866,0.11141 0.16299,0.16711 0.023,0.0308 0.45914,-0.29454 0.43613,-0.32538 v 0 c -0.0541,-0.0577 -0.10829,-0.11546 -0.16244,-0.17319 -0.43989,-0.45561 -0.83397,-0.95447 -1.25326,-1.42847 -0.0189,-0.0329 -0.48412,0.2341 -0.46524,0.267 z" />
    <path
       style="opacity:0.995475;fill:#69a219;fill-opacity:0.996078;stroke:#000000;stroke-width:0;stroke-miterlimit:4;stroke-dasharray:none;stroke-opacity:1"
       id="path26573"
       d="m 149.54037,143.64964 c -0.0761,0.4889 -0.27405,0.94775 -0.40777,1.42286 -0.009,0.0381 0.52921,0.16859 0.53845,0.13051 v 0 c 0.14791,-0.49126 0.36464,-0.97308 0.39548,-1.49035 0.004,-0.0372 -0.52171,-0.10023 -0.52616,-0.063 z" />
    <path
       style="opacity:0.995475;fill:#69a219;fill-opacity:0.996078;stroke:#000000;stroke-width:0;stroke-miterlimit:4;stroke-dasharray:none;stroke-opacity:1"
       id="path26575"
       d="m 150.85632,145.93143 c 0.80508,-0.23435 1.57952,-0.56089 2.35861,-0.86765 0.0404,-0.0261 -0.32817,-0.59777 -0.3686,-0.5717 v 0 c -0.75079,0.30862 -1.49758,0.62519 -2.24074,0.95178 -0.0345,0.0177 0.21625,0.5053 0.25073,0.48757 z" />
    <path
       style="opacity:0.995475;fill:#69a219;fill-opacity:0.996078;stroke:#000000;stroke-width:0;stroke-miterlimit:4;stroke-dasharray:none;stroke-opacity:1"
       id="path26577"
       d="m 68.065152,144.67755 c 0.166965,0.70174 0.449744,1.36565 0.675238,2.04866 0.01019,0.0391 0.563551,-0.10485 0.553373,-0.14398 v 0 c -0.202089,-0.68215 -0.457777,-1.34725 -0.704996,-2.01398 -0.0077,-0.037 -0.531344,0.0723 -0.523615,0.1093 z" />
    <path
       style="opacity:0.995475;fill:#69a219;fill-opacity:0.996078;stroke:#000000;stroke-width:0;stroke-miterlimit:4;stroke-dasharray:none;stroke-opacity:1"
       id="path26585"
       d="m 70.117966,144.99426 c 0.07427,0.62285 0.27449,1.22078 0.266478,1.85135 -0.0084,0.0676 -0.01685,0.13528 -0.02529,0.20293 -0.0043,0.0381 0.535252,0.0984 0.539512,0.0602 v 0 c 0.0117,-0.0835 0.02336,-0.16692 0.03505,-0.25038 0.02548,-0.63763 -0.124291,-1.25029 -0.286126,-1.86412 0,-0.0375 -0.529627,-0.0375 -0.529627,0 z" />
    <path
       style="opacity:0.995475;fill:#69a219;fill-opacity:0.996078;stroke:#000000;stroke-width:0;stroke-miterlimit:4;stroke-dasharray:none;stroke-opacity:1"
       id="path26589"
       d="m 72.900732,146.67933 c 0.192138,-0.36095 0.415737,-0.73998 0.704469,-1.03526 0.06086,-0.0622 0.135504,-0.10929 0.203256,-0.16394 0.02635,-0.0293 -0.388173,-0.40181 -0.414512,-0.3725 v 0 c -0.08819,0.0765 -0.183595,0.14541 -0.264563,0.22952 -0.33575,0.34878 -0.619619,0.81656 -0.754816,1.27916 -0.0044,0.0372 0.521711,0.10022 0.526166,0.063 z" />
    <circle
       id="path26601"
       style="fill:#69a219;stroke:#000000;stroke-width:0.264583"
       cx="172.06064"
       cy="179.72195"
       r="0" />
    <circle
       id="path26603"
       style="fill:#69a219;stroke:#000000;stroke-width:0.264583"
       cx="172.06064"
       cy="179.72195"
       r="0" />
    <path
       style="opacity:0.995475;fill:#69a219;fill-opacity:0.996078;stroke:#000000;stroke-width:0;stroke-miterlimit:4;stroke-dasharray:none;stroke-opacity:1"
       id="path26605"
       d="m 123.79564,152.82897 c 0.20305,0.44311 0.37321,0.90107 0.63095,1.31665 0.0307,0.0413 0.0614,0.0826 0.0922,0.12385 0.0197,0.0317 0.46756,-0.24762 0.44781,-0.27928 v 0 c -0.0186,-0.0217 -0.0371,-0.0434 -0.0557,-0.0652 -0.21559,-0.43814 -0.37991,-0.90167 -0.63107,-1.32167 -0.016,-0.0342 -0.50009,0.19138 -0.48414,0.22561 z" />
    <path
       style="opacity:0.995475;fill:#69a219;fill-opacity:0.996078;stroke:#000000;stroke-width:0;stroke-miterlimit:4;stroke-dasharray:none;stroke-opacity:1"
       id="path26607"
       d="m 126.66003,152.91944 c -0.10814,0.51074 -0.0964,1.05429 -0.2591,1.55216 -0.0105,0.0373 0.51713,0.18577 0.52763,0.14846 v 0 c 0.18241,-0.52595 0.22062,-1.09275 0.26268,-1.64493 0.004,-0.0376 -0.52728,-0.0933 -0.53121,-0.0557 z" />
    <path
       style="opacity:0.995475;fill:#69a219;fill-opacity:0.996078;stroke:#000000;stroke-width:0;stroke-miterlimit:4;stroke-dasharray:none;stroke-opacity:1"
       id="path26609"
       d="m 129.20292,153.39954 c -0.17342,0.51554 -0.34836,1.03413 -0.59208,1.52198 -0.0156,0.0351 0.48063,0.25633 0.49628,0.22124 v 0 c 0.29204,-0.50126 0.49832,-1.0515 0.61218,-1.62026 0.009,-0.0365 -0.50768,-0.15947 -0.51638,-0.12296 z" />
    <path
       style="opacity:0.995475;fill:#69a219;fill-opacity:1;stroke:#000000;stroke-width:0;stroke-miterlimit:4;stroke-dasharray:none;stroke-opacity:1"
       id="path34599"
       d="m 82.464718,164.5026 c 0.231654,0.49832 0.42481,1.01231 0.61014,1.52917 0.01191,0.0405 0.5852,-0.1277 0.573302,-0.16824 v 0 c -0.194217,-0.55696 -0.405537,-1.10777 -0.716328,-1.61245 -0.01778,-0.033 -0.484896,0.21849 -0.467114,0.25152 z" />
    <path
       style="opacity:0.995475;fill:#69a219;fill-opacity:1;stroke:#000000;stroke-width:0;stroke-miterlimit:4;stroke-dasharray:none;stroke-opacity:1"
       id="path34601"
       d="m 84.507,164.14624 c -0.166841,0.724 -0.362265,1.44315 -0.427635,2.18519 -0.0038,0.0388 0.544978,0.0929 0.548806,0.0541 v 0 c 0.10813,-0.71934 0.320829,-1.41834 0.408784,-2.14086 0.007,-0.0375 -0.522991,-0.13593 -0.529955,-0.0984 z" />
    <path
       style="opacity:0.995475;fill:#69a219;fill-opacity:1;stroke:#000000;stroke-width:0;stroke-miterlimit:4;stroke-dasharray:none;stroke-opacity:1"
       id="path34603"
       d="m 85.953509,166.84371 c 0.360775,-0.17402 0.669025,-0.41623 0.97183,-0.67408 0.157028,-0.13371 0.412354,-0.3442 0.550537,-0.50762 0.06468,-0.0765 0.113819,-0.16486 0.170728,-0.24729 0.110128,-0.0673 0.09762,-0.4022 0.132178,-0.43653 0.0092,-0.009 0.02098,0.0154 0.03146,0.0231 0.02053,-0.0306 -0.412485,-0.32082 -0.433006,-0.2902 v 0 c -0.03501,0.0614 -0.074,0.12066 -0.105021,0.18416 -0.04526,0.0926 0.0054,0.15949 -0.101547,0.23968 -0.407543,0.51218 -1.006922,0.90366 -1.533044,1.28523 -0.02995,0.0223 0.285938,0.4459 0.315889,0.42357 z" />
    <path
       style="opacity:0.995475;fill:#69a219;fill-opacity:1;stroke:#000000;stroke-width:0;stroke-miterlimit:4;stroke-dasharray:none;stroke-opacity:1"
       id="path34605"
       d="m 115.75183,169.51635 c 0.0859,0.45909 0.22176,0.90392 0.37731,1.3434 0.0625,0.17669 0.18308,0.53082 0.28827,0.70451 0.0489,0.0807 0.11781,0.14733 0.17671,0.221 0.0836,0.0626 0.16719,0.12514 0.25079,0.18772 0.029,0.0259 0.39501,-0.3838 0.36604,-0.40968 v 0 c -0.0541,-0.0255 -0.10822,-0.051 -0.16232,-0.0764 -0.0334,-0.0378 -0.0761,-0.0689 -0.10008,-0.11326 -0.0692,-0.12799 -0.21238,-0.57581 -0.24663,-0.67665 -0.1433,-0.42197 -0.27404,-0.84733 -0.41438,-1.27025 -0.006,-0.0379 -0.54205,0.0518 -0.53571,0.0896 z" />
    <path
       style="opacity:0.995475;fill:#69a219;fill-opacity:1;stroke:#000000;stroke-width:0;stroke-miterlimit:4;stroke-dasharray:none;stroke-opacity:1"
       id="path34607"
       d="m 117.6464,169.76828 c -0.10263,0.59204 -0.1345,1.19261 -0.15337,1.79214 -0.001,0.0403 0.56805,0.0581 0.56931,0.0178 v 0 c 0.0253,-0.58564 0.0779,-1.16933 0.11527,-1.75426 0.004,-0.0376 -0.52727,-0.0933 -0.53121,-0.0557 z" />
    <path
       style="opacity:0.995475;fill:#69a219;fill-opacity:1;stroke:#000000;stroke-width:0;stroke-miterlimit:4;stroke-dasharray:none;stroke-opacity:1"
       id="path34609"
       d="m 120.19222,171.46992 c 0.18315,-0.53089 0.4978,-1.00764 0.87328,-1.42176 0.0226,-0.032 -0.43047,-0.35112 -0.45304,-0.31909 v 0 c -0.42076,0.47462 -0.79486,1.00483 -0.94385,1.63155 -0.008,0.037 0.51588,0.14632 0.52361,0.1093 z" />
    <path
       style="opacity:0.995475;fill:#69a219;fill-opacity:1;stroke:#000000;stroke-width:0;stroke-miterlimit:4;stroke-dasharray:none;stroke-opacity:1"
       id="path34611"
       d="m 149.07431,161.60817 c 0.42303,0.32434 0.91839,0.54115 1.31949,0.8937 0.0774,0.0889 0.17955,0.14732 0.26083,0.2315 0.0209,0.0303 0.44897,-0.26615 0.42802,-0.29641 v 0 c -0.0856,-0.10114 -0.17574,-0.17459 -0.26946,-0.26814 -0.12009,-0.12688 -0.18997,-0.20974 -0.33734,-0.31901 -0.33424,-0.24784 -0.71717,-0.42414 -1.06262,-0.65446 -0.0292,-0.024 -0.36811,0.38886 -0.33892,0.41282 z" />
    <path
       style="opacity:0.995475;fill:#69a219;fill-opacity:1;stroke:#000000;stroke-width:0;stroke-miterlimit:4;stroke-dasharray:none;stroke-opacity:1"
       id="path34613"
       d="m 150.99933,160.8803 c 0.13608,0.41945 0.24907,0.84567 0.36231,1.27166 0.009,0.0412 0.59226,-0.0882 0.58311,-0.12941 v 0 c -0.11854,-0.44532 -0.23514,-0.89278 -0.42747,-1.31368 -0.0121,-0.0366 -0.53008,0.1348 -0.51795,0.17143 z" />
    <path
       style="opacity:0.995475;fill:#69a219;fill-opacity:1;stroke:#000000;stroke-width:0;stroke-miterlimit:4;stroke-dasharray:none;stroke-opacity:1"
       id="path34615"
       d="m 153.51702,160.8749 c -0.34534,0.40478 -0.64255,0.84547 -0.918,1.29954 -0.0185,0.0366 0.49847,0.29799 0.51696,0.26144 v 0 c 0.28541,-0.44509 0.59141,-0.87562 0.88261,-1.31683 0.0172,-0.034 -0.46431,-0.2782 -0.48157,-0.24415 z" />
    <path
       style="opacity:0.995475;fill:#69a219;fill-opacity:1;stroke:#000000;stroke-width:0;stroke-miterlimit:4;stroke-dasharray:none;stroke-opacity:1"
       id="path34617"
       d="m 63.150908,125.17384 c 0.391676,0.28777 0.804286,0.54536 1.083836,0.95223 0.08556,0.10874 0.09409,0.23662 0.121405,0.36691 0.0288,0.13737 0.06758,0.27247 0.100163,0.40899 0.0079,0.0377 0.540581,-0.0743 0.532659,-0.11199 v 0 c -0.08074,-0.3051 -0.151982,-0.61732 -0.274661,-0.90712 -0.303157,-0.5182 -0.744159,-0.8244 -1.247513,-1.13259 -0.02995,-0.0223 -0.34584,0.40123 -0.315889,0.42357 z" />
    <path
       style="opacity:0.995475;fill:#69a219;fill-opacity:1;stroke:#000000;stroke-width:0;stroke-miterlimit:4;stroke-dasharray:none;stroke-opacity:1"
       id="path34619"
       d="m 65.606583,124.80169 c -0.04416,0.55975 -0.02537,1.11254 0.08739,1.66216 0.0059,0.0376 0.538102,-0.0454 0.532231,-0.083 v 0 c -0.08666,-0.52345 -0.07033,-1.05039 -0.08999,-1.57912 0,-0.0374 -0.529627,-0.0374 -0.529627,0 z" />
    <path
       style="opacity:0.995475;fill:#69a219;fill-opacity:1;stroke:#000000;stroke-width:0;stroke-miterlimit:4;stroke-dasharray:none;stroke-opacity:1"
       id="path34621"
       d="m 67.908468,126.57566 c 0.221224,-0.35091 0.426233,-0.72448 0.686401,-1.04964 0.100944,-0.12616 0.2189,-0.23774 0.325993,-0.35873 0.152479,-0.21002 0.08969,-0.10155 0.192225,-0.32313 0.014,-0.0345 -0.47394,-0.23252 -0.487942,-0.19801 v 0 c -0.06934,0.12364 -0.02379,0.0537 -0.148905,0.20143 -0.08067,0.0849 -0.307874,0.3218 -0.369813,0.3981 -0.271582,0.33456 -0.492215,0.71983 -0.682096,1.10437 -0.01595,0.0342 0.468183,0.25985 0.484137,0.22561 z" />
    <path
       style="opacity:0.995475;fill:#69a219;fill-opacity:1;stroke:#000000;stroke-width:0;stroke-miterlimit:4;stroke-dasharray:none;stroke-opacity:1"
       id="path34623"
       d="m 144.02042,118.65773 c 0.22492,0.56848 0.59977,1.05344 0.89407,1.5838 0.187,0.26849 0.0974,0.14295 0.26794,0.37729 0.0189,0.0332 0.48882,-0.2345 0.46989,-0.26772 v 0 c -0.15208,-0.2205 -0.0754,-0.11145 -0.23001,-0.32718 -0.26511,-0.53475 -0.63051,-1.01056 -0.90014,-1.54373 -0.0126,-0.0355 -0.5143,0.14207 -0.50175,0.17754 z" />
    <path
       style="opacity:0.995475;fill:#69a219;fill-opacity:1;stroke:#000000;stroke-width:0;stroke-miterlimit:4;stroke-dasharray:none;stroke-opacity:1"
       id="path34625"
       d="m 146.62995,118.8344 c -0.0332,0.69317 0.0647,1.38488 0.13033,2.07377 0.003,0.0395 0.56072,0.003 0.55815,-0.0363 v 0 c -0.0408,-0.68016 -0.12273,-1.35697 -0.15462,-2.03749 0,-0.0378 -0.53386,-0.0378 -0.53386,0 z" />
    <path
       style="opacity:0.995475;fill:#69a219;fill-opacity:1;stroke:#000000;stroke-width:0;stroke-miterlimit:4;stroke-dasharray:none;stroke-opacity:1"
       id="path34635"
       d="m 148.31121,121.04561 c 0.3946,-0.40817 0.73195,-0.86893 1.06101,-1.3304 0.0209,-0.0354 -0.47977,-0.33081 -0.50066,-0.29541 v 0 c -0.3286,0.43211 -0.65953,0.86213 -0.97908,1.30101 -0.023,0.0296 0.39576,0.35441 0.41873,0.3248 z" />
    <path
       style="opacity:0.995475;fill:#69a219;fill-opacity:1;stroke:#000000;stroke-width:0;stroke-miterlimit:4;stroke-dasharray:none;stroke-opacity:1"
       id="path34645"
       d="m 49.607649,156.21682 c 0.06986,0.4392 0.140748,0.8766 0.247526,1.30832 0.0082,0.0397 0.569733,-0.0763 0.56153,-0.11601 v 0 c -0.106859,-0.43181 -0.159498,-0.87408 -0.28544,-1.30161 -0.0077,-0.037 -0.531344,0.0723 -0.523616,0.1093 z" />
    <path
       style="opacity:0.995475;fill:#69a219;fill-opacity:1;stroke:#000000;stroke-width:0;stroke-miterlimit:4;stroke-dasharray:none;stroke-opacity:1"
       id="path34647"
       d="m 51.261755,156.11101 c -0.104645,0.55445 -0.187579,1.11295 -0.288049,1.66798 -0.0066,0.0381 0.531985,0.13191 0.538618,0.0938 v 0 c 0.129643,-0.55725 0.233479,-1.12845 0.2756,-1.6988 0.0044,-0.0372 -0.521713,-0.10022 -0.526169,-0.063 z" />
    <path
       style="opacity:0.995475;fill:#69a219;fill-opacity:1;stroke:#000000;stroke-width:0;stroke-miterlimit:4;stroke-dasharray:none;stroke-opacity:1"
       id="path34649"
       d="m 52.665195,157.80882 c 0.272304,-0.3309 0.571368,-0.63564 0.8846,-0.92732 0.02593,-0.032 -0.426095,-0.39858 -0.452019,-0.36662 v 0 c -0.337958,0.32674 -0.669835,0.66463 -0.916718,1.06833 -0.01595,0.0342 0.468183,0.25984 0.484137,0.22561 z" />
  </g>
</svg>
