<?xml version="1.0" encoding="UTF-8" standalone="no"?>
<!-- Created with Inkscape (http://www.inkscape.org/) -->

<svg
   width="210mm"
   height="297mm"
   viewBox="0 0 210 297"
   version="1.1"
   id="svg3292"
   inkscape:version="1.1 (c68e22c387, 2021-05-23)"
   sodipodi:docname="humidité air.svg"
   xmlns:inkscape="http://www.inkscape.org/namespaces/inkscape"
   xmlns:sodipodi="http://sodipodi.sourceforge.net/DTD/sodipodi-0.dtd"
   xmlns="http://www.w3.org/2000/svg"
   xmlns:svg="http://www.w3.org/2000/svg">
  <sodipodi:namedview
     id="namedview3294"
     pagecolor="#ffffff"
     bordercolor="#999999"
     borderopacity="1"
     inkscape:pageshadow="0"
     inkscape:pageopacity="0"
     inkscape:pagecheckerboard="0"
     inkscape:document-units="mm"
     showgrid="false"
     inkscape:zoom="2.8591284"
     inkscape:cx="396.62436"
     inkscape:cy="338.04008"
     inkscape:window-width="1920"
     inkscape:window-height="1001"
     inkscape:window-x="-9"
     inkscape:window-y="-9"
     inkscape:window-maximized="1"
     inkscape:current-layer="layer1" />
  <defs
     id="defs3289">
    <inkscape:path-effect
       effect="spiro"
       id="path-effect3388"
       is_visible="true"
       lpeversion="1" />
  </defs>
  <g
     inkscape:label="Calque 1"
     inkscape:groupmode="layer"
     id="layer1">
    <path
       id="path3598"
       style="opacity:0.995475;fill:#ffffff;stroke:#1c2422;stroke-width:0.7"
       d="m 96.013152,64.740043 a 8.5954427,8.4125614 0 0 0 -6.895187,3.399277 8.5954427,8.4125614 0 0 0 -5.906616,-2.301669 8.5954427,8.4125614 0 0 0 -8.478033,7.048148 8.5954427,8.4125614 0 0 0 -4.872572,7.581966 8.5954427,8.4125614 0 0 0 4.763016,7.526674 8.5954427,8.4125614 0 0 0 8.587589,8.201567 8.5954427,8.4125614 0 0 0 4.525822,-1.267624 8.5954427,8.4125614 0 0 0 1.691886,0.170016 8.5954427,8.4125614 0 0 0 2.978113,-0.526066 8.5954427,8.4125614 0 0 0 7.629,4.549593 8.5954427,8.4125614 0 0 0 6.56652,-2.992065 8.5954427,8.4125614 0 0 0 6.23528,2.626196 8.5954427,8.4125614 0 0 0 8.59534,-8.412408 8.5954427,8.4125614 0 0 0 -0.0915,-1.222148 8.5954427,8.4125614 0 0 0 0.0145,-0.02222 8.5954427,8.4125614 0 0 0 7.02645,-8.265644 8.5954427,8.4125614 0 0 0 -8.59534,-8.412409 8.5954427,8.4125614 0 0 0 -1.7508,0.180869 8.5954427,8.4125614 0 0 0 -8.12457,-5.667354 8.5954427,8.4125614 0 0 0 -6.1619,2.554365 8.5954427,8.4125614 0 0 0 -7.736998,-4.749064 z" />
    <path
       id="path969"
       style="fill:#280b0b;fill-opacity:0.00389105;stroke:#000000;stroke-width:0.345143;stroke-miterlimit:4;stroke-dasharray:none"
       d="m 97.482742,73.507944 -5.12766,10.2852 0.0121,5.1e-4 a 5.048543,4.0435423 0 0 0 -0.30555,1.38226 5.048543,4.0435423 0 0 0 5.04854,4.04351 5.048543,4.0435423 0 0 0 5.048548,-4.04351 5.048543,4.0435423 0 0 0 -0.47511,-1.71195 z"
       inkscape:export-filename="C:\Users\jean_\OneDrive\Images\sprites projet serre\goutte.png"
       inkscape:export-xdpi="96"
       inkscape:export-ydpi="96" />
    <path
       style="opacity:0.995475;fill:#e3eff3;stroke:#000000;stroke-width:3.02362209;stroke-miterlimit:4;stroke-dasharray:none"
       d="m 362.13561,244.26597 c -9.60622,0.3036 -19.08862,4.69746 -25.27495,12.10151 -13.6165,-11.65637 -36.03622,-10.94543 -47.56366,3.30214 -6.13309,5.72013 -5.63534,15.86147 -13.87512,19.63521 -8.96803,6.35832 -12.3124,17.40677 -10.89762,27.99595 -1.25045,11.95495 8.62238,19.9033 16.82927,26.58716 0.99426,18.36451 19.97529,33.42959 38.32147,29.82988 7.40159,-1.64678 14.40153,-4.83569 22.23741,-3.94743 3.63777,0.0276 8.46419,-3.1574 9.7795,2.26262 11.49897,16.29842 37.91215,17.51901 50.83879,2.40032 12.87901,11.40507 34.03775,12.91707 46.73206,0.42121 8.20961,-6.59855 10.0651,-17.46009 10.9783,-27.17037 15.93575,-4.81424 29.20723,-21.08328 24.92123,-38.30257 -3.10866,-17.5347 -21.84596,-28.95346 -38.67246,-26.22805 -7.70799,-19.63914 -35.63582,-27.7944 -51.84127,-13.35274 -4.00802,3.3299 -6.3256,-5.59643 -10.20803,-7.44556 -5.95822,-5.70489 -14.11127,-8.46119 -22.30492,-8.08928 z m 8.52668,42.59831 c 4.367,12.40423 12.00091,24.38989 13.22743,37.58976 -4.03321,15.09869 -30.98967,14.82594 -33.77193,-0.7992 2.75906,-15.03277 12.02299,-28.18158 18.51408,-41.69381 0.67681,1.63442 1.35362,3.26883 2.03042,4.90325 z"
       id="path39945"
       transform="scale(0.26458333)" />
  </g>
</svg>
