<?xml version="1.0" encoding="UTF-8" standalone="no"?>
<!-- Created with Inkscape (http://www.inkscape.org/) -->

<svg
   width="210mm"
   height="297mm"
   viewBox="0 0 210 297"
   version="1.1"
   id="svg42037"
   inkscape:version="1.1 (c68e22c387, 2021-05-23)"
   sodipodi:docname="Logo.svg"
   inkscape:export-filename="C:\Users\jean_\OneDrive\Images\sprites projet serre\Logo.png"
   inkscape:export-xdpi="96"
   inkscape:export-ydpi="96"
   xmlns:inkscape="http://www.inkscape.org/namespaces/inkscape"
   xmlns:sodipodi="http://sodipodi.sourceforge.net/DTD/sodipodi-0.dtd"
   xmlns="http://www.w3.org/2000/svg"
   xmlns:svg="http://www.w3.org/2000/svg">
  <sodipodi:namedview
     id="namedview42039"
     pagecolor="#ffffff"
     bordercolor="#999999"
     borderopacity="1"
     inkscape:pageshadow="0"
     inkscape:pageopacity="0"
     inkscape:pagecheckerboard="0"
     inkscape:document-units="mm"
     showgrid="false"
     inkscape:zoom="3.52"
     inkscape:cx="388.35227"
     inkscape:cy="430.53977"
     inkscape:window-width="1920"
     inkscape:window-height="1001"
     inkscape:window-x="-9"
     inkscape:window-y="-9"
     inkscape:window-maximized="1"
     inkscape:current-layer="layer1" />
  <defs
     id="defs42034">
    <inkscape:path-effect
       effect="spiro"
       id="path-effect59778"
       is_visible="true"
       lpeversion="1" />
    <inkscape:path-effect
       effect="spiro"
       id="path-effect50125"
       is_visible="true"
       lpeversion="1" />
    <inkscape:path-effect
       effect="spiro"
       id="path-effect47540"
       is_visible="true"
       lpeversion="1" />
    <inkscape:path-effect
       effect="spiro"
       id="path-effect47503"
       is_visible="true"
       lpeversion="1" />
    <inkscape:path-effect
       effect="spiro"
       id="path-effect47497"
       is_visible="true"
       lpeversion="1" />
    <inkscape:path-effect
       effect="spiro"
       id="path-effect47491"
       is_visible="true"
       lpeversion="1" />
    <inkscape:path-effect
       effect="spiro"
       id="path-effect47485"
       is_visible="true"
       lpeversion="1" />
    <inkscape:path-effect
       effect="spiro"
       id="path-effect47479"
       is_visible="true"
       lpeversion="1" />
    <inkscape:path-effect
       effect="spiro"
       id="path-effect47473"
       is_visible="true"
       lpeversion="1" />
    <inkscape:path-effect
       effect="spiro"
       id="path-effect47381"
       is_visible="true"
       lpeversion="1" />
    <inkscape:path-effect
       effect="spiro"
       id="path-effect47260"
       is_visible="true"
       lpeversion="1" />
    <inkscape:path-effect
       effect="spiro"
       id="path-effect47254"
       is_visible="true"
       lpeversion="1" />
    <inkscape:path-effect
       effect="spiro"
       id="path-effect46932"
       is_visible="true"
       lpeversion="1" />
    <inkscape:path-effect
       effect="spiro"
       id="path-effect46928"
       is_visible="true"
       lpeversion="1" />
    <inkscape:path-effect
       effect="spiro"
       id="path-effect46924"
       is_visible="true"
       lpeversion="1" />
    <inkscape:path-effect
       effect="spiro"
       id="path-effect46807"
       is_visible="true"
       lpeversion="1" />
    <inkscape:path-effect
       effect="spiro"
       id="path-effect46801"
       is_visible="true"
       lpeversion="1" />
    <inkscape:path-effect
       effect="spiro"
       id="path-effect46789"
       is_visible="true"
       lpeversion="1" />
    <inkscape:path-effect
       effect="spiro"
       id="path-effect46752"
       is_visible="true"
       lpeversion="1" />
    <inkscape:path-effect
       effect="spiro"
       id="path-effect46746"
       is_visible="true"
       lpeversion="1" />
    <inkscape:path-effect
       effect="spiro"
       id="path-effect46740"
       is_visible="true"
       lpeversion="1" />
    <inkscape:path-effect
       effect="spiro"
       id="path-effect46654"
       is_visible="true"
       lpeversion="1" />
    <inkscape:path-effect
       effect="spiro"
       id="path-effect46613"
       is_visible="true"
       lpeversion="1" />
    <inkscape:path-effect
       effect="spiro"
       id="path-effect46447"
       is_visible="true"
       lpeversion="1" />
    <inkscape:path-effect
       effect="spiro"
       id="path-effect46330"
       is_visible="true"
       lpeversion="1" />
    <inkscape:path-effect
       effect="spiro"
       id="path-effect46244"
       is_visible="true"
       lpeversion="1" />
    <inkscape:path-effect
       effect="spiro"
       id="path-effect45961"
       is_visible="true"
       lpeversion="1" />
    <inkscape:path-effect
       effect="spiro"
       id="path-effect45875"
       is_visible="true"
       lpeversion="1" />
    <inkscape:path-effect
       effect="spiro"
       id="path-effect45869"
       is_visible="true"
       lpeversion="1" />
    <inkscape:path-effect
       effect="spiro"
       id="path-effect45752"
       is_visible="true"
       lpeversion="1" />
    <inkscape:path-effect
       effect="spiro"
       id="path-effect45746"
       is_visible="true"
       lpeversion="1" />
    <inkscape:path-effect
       effect="spiro"
       id="path-effect45709"
       is_visible="true"
       lpeversion="1" />
    <inkscape:path-effect
       effect="spiro"
       id="path-effect45039"
       is_visible="true"
       lpeversion="1" />
    <inkscape:path-effect
       effect="spiro"
       id="path-effect44918"
       is_visible="true"
       lpeversion="1" />
    <inkscape:path-effect
       effect="spiro"
       id="path-effect44912"
       is_visible="true"
       lpeversion="1" />
    <inkscape:path-effect
       effect="spiro"
       id="path-effect44908"
       is_visible="true"
       lpeversion="1" />
    <inkscape:path-effect
       effect="spiro"
       id="path-effect44631"
       is_visible="true"
       lpeversion="1" />
    <inkscape:path-effect
       effect="spiro"
       id="path-effect44625"
       is_visible="true"
       lpeversion="1" />
    <inkscape:path-effect
       effect="spiro"
       id="path-effect44588"
       is_visible="true"
       lpeversion="1" />
    <inkscape:path-effect
       effect="spiro"
       id="path-effect44502"
       is_visible="true"
       lpeversion="1" />
  </defs>
  <g
     inkscape:label="Calque 1"
     inkscape:groupmode="layer"
     id="layer1">
    <path
       style="opacity:0.995475;fill:#a08a51;fill-opacity:1;stroke:#002b00;stroke-width:1;stroke-miterlimit:4;stroke-dasharray:none;stroke-opacity:1"
       d="m 87.648624,88.491034 c -0.94106,-0.093 -1.48332,0.9188 -1.16991,1.73001 -0.0848,1.03852 0.9233,1.35236 1.77219,1.33624 2.91786,0.36133 5.75407,1.18509 8.55932,1.96615 0.3351,0.48055 0.97187,0.62028 1.28938,1.16056 1.42796,1.7038 3.155476,3.24209 4.054036,5.323506 1.07596,3.00885 1.66971,6.17287 2.69656,9.19455 -0.0773,2.17298 -1.09877,4.14784 -1.7232,6.20062 -0.64911,1.77511 -1.26134,3.6168 -1.94558,5.34512 -0.52045,0.10336 -0.90397,0.0949 -1.11233,-0.48231 -0.860226,-1.39174 -1.900156,-2.68871 -3.352316,-3.49745 -2.73606,-1.91046 -5.71175,-3.42824 -8.5955,-5.08958 -1.89365,-1.35068 -2.70096,-3.66458 -3.88511,-5.57702 -1.02554,-2.19812 -2.13589,-4.43062 -2.57911,-6.829266 -0.17011,-1.12626 0.24643,-2.28241 -0.0372,-3.37965 -0.81303,-0.7314 -1.95037,0.0175 -2.93145,-0.12185 -0.87751,0.1195 -2.18531,-0.74873 -2.62752,0.36149 -0.12113,2.14346 0.22253,4.305726 1.04935,6.296706 0.85477,2.65839 1.86944,5.27217 2.70946,7.92947 0.12818,0.9126 -1.13191,0.86066 -1.728,1.03376 -1.39063,0.3084 -2.812,0.4918 -4.21528,0.13303 -2.00221,-0.38447 -4.15068,-0.41685 -6.04724,-1.24291 -0.71864,-0.61573 -1.92855,-1.39538 -2.73178,-0.46836 -0.65805,0.93589 -0.71955,2.36527 0.29113,3.09278 1.63645,1.33926 3.14658,2.91811 5.05626,3.86931 1.47108,0.49124 3.05154,0.70291 4.58336,0.83391 1.81332,-0.58872 3.75664,-1.23808 5.66122,-0.64289 2.10072,0.53946 4.25412,1.04605 6.23613,1.92414 1.84515,1.08753 3.85045,2.06598 5.50191,3.48332 1.67913,1.51251 2.40382,3.75017 3.53961,5.64965 0.90223,1.83286 1.99247,3.61192 2.70333,5.51861 0.47954,2.29265 0.39121,4.69787 0.66838,7.03277 0.48634,6.35138 1.381706,12.68491 0.857016,19.03144 -0.669046,3.85912 -2.227026,7.44222 -3.405216,11.16906 -0.99108,3.06084 -2.16977,6.07985 -2.99187,9.18543 0.12029,1.24202 1.68095,1.05107 2.57347,1.19908 1.87499,0.12192 3.760206,0.43374 5.630706,0.42297 0.65139,-0.20206 0.57595,-1.02031 1.13498,-1.35709 0.89844,-0.96139 1.85493,-1.86611 2.78375,-2.79767 1.32767,-0.23298 2.04596,1.13266 2.86899,1.90146 0.45542,0.49121 0.88945,1.0031 1.10741,1.62758 0.84807,0.71386 2.08695,0.13795 3.08251,0.23844 1.782,-0.1741 3.62764,-0.0337 5.37243,-0.43697 0.90618,-0.76342 -0.072,-1.90314 -0.20572,-2.80732 -1.87672,-5.84199 -4.06125,-11.59049 -5.74893,-17.48988 -0.53279,-5.81918 0.0234,-11.62783 0.57641,-17.453 0.27738,-2.93148 0.47984,-5.86942 0.64093,-8.80878 0.55309,-0.42623 0.14565,-1.18987 0.63452,-1.68997 1.56896,-3.04116 3.05724,-6.16259 4.87307,-9.03322 1.64779,-2.11501 4.17015,-3.21757 6.41761,-4.54671 0.681,0.0685 0.95555,-0.70356 1.65636,-0.68303 2.32649,-0.53947 4.61383,-1.63218 7.04455,-1.4895 1.61742,0.13735 3.13955,1.25721 4.80466,0.67968 1.64677,-0.26451 3.43775,-0.45423 4.69096,-1.68628 1.56989,-1.31674 3.26881,-2.53087 4.64186,-4.05251 0.56765,-0.73722 -0.0262,-1.87434 -0.97279,-1.73598 -0.91387,-0.0933 -2.06183,-0.72867 -2.64072,0.349 -0.88024,1.18671 -2.3149,1.65128 -3.72921,1.79455 -1.92373,0.24973 -3.85038,0.77686 -5.79442,0.70327 -1.13136,-0.22341 -2.41443,-0.19711 -3.4782,-0.73933 -0.47537,-0.73182 0.24248,-1.63423 0.40923,-2.3727 1.03593,-3.11262 2.28927,-6.17026 3.05364,-9.36362 0.0559,-1.297926 0.42824,-2.730036 -0.15821,-3.948836 -0.60227,-1.27539 -2.36662,-1.14015 -3.26348,-0.30135 -0.43858,1.79721 0.3401,3.80052 -0.60602,5.492836 -0.86083,2.44958 -1.99039,4.7836 -3.34551,6.99747 -0.75287,1.45283 -1.6868,2.93847 -3.2514,3.66378 -3.31249,1.84502 -6.78737,3.58351 -9.67968,6.09438 -0.79081,0.80223 -1.38291,1.86637 -2.05466,2.69259 -0.42919,-0.12414 -0.89204,-0.0286 -0.88504,-0.65166 -1.16482,-3.45821 -2.59493,-6.84733 -3.46939,-10.39277 0.0243,-1.26638 0.71158,-2.43922 0.94432,-3.68326 0.81214,-2.48172 1.07739,-5.21198 2.49213,-7.456026 1.23101,-1.59154 2.5116,-3.15873 3.88266,-4.63136 0.65753,-0.004 0.86821,-0.76833 1.55318,-0.74624 2.88844,-0.83942 5.84416,-1.53363 8.8158,-1.92355 0.78974,-0.45329 0.66919,-1.63108 0.43204,-2.38136 -0.64201,-0.95583 -1.95638,-0.23474 -2.86995,-0.25146 -2.72695,0.42781 -5.53226,0.6369 -8.1012,1.72216 -0.39654,0.18041 -0.87742,0.20846 -0.79073,-0.36554 -0.13817,-1.21934 -1.41915,-1.83502 -2.53865,-1.67605 -0.87338,-0.22331 -1.59801,0.57734 -1.24659,1.41389 -0.0546,0.84868 -0.21248,1.75216 -0.82624,2.35743 -0.21934,0.83062 -1.10767,1.32394 -1.59056,2.03563 -0.57109,0.52342 -1.24864,1.47446 -2.1231,1.26392 -1.2023,-1.05583 -2.40715,-2.17953 -3.39357,-3.42623 -0.0787,-0.59383 -0.73297,-0.79409 -0.70404,-1.43524 -0.18124,-0.80196 -0.2184,-2.16167 -1.37383,-1.98438 -0.92238,0.0342 -2.439206,-0.14463 -2.587566,1.11985 0.0309,0.40086 -0.19735,0.91248 -0.67025,0.50955 -2.77072,-1.2293 -5.84092,-1.34743 -8.79139,-1.83902 -0.45685,-0.056 -0.9157,-0.12219 -1.37715,-0.11197 z m 23.035506,3.91788 c 0.001,-10e-4 0.007,-10e-4 0,0 z m -12.873556,1.60248 c -0.006,2.7e-4 0.0121,-0.002 0,0 z m -10.34344,24.761546 c -0.0438,0.0134 0.14034,-0.0792 0,0 z"
       id="path59817" />
    <path
       style="opacity:0.995475;fill:#0eaf13;fill-opacity:1;stroke:#1c2422;stroke-width:1;stroke-miterlimit:4;stroke-dasharray:none"
       d="m 151.58521,125.58543 c -0.37656,-0.31686 -1.64362,-2.82915 -1.95403,-3.8744 -0.21555,-0.72585 -0.21079,-1.60052 0.0134,-2.45759 0.25621,-0.97955 0.14822,-1.78196 -0.5099,-3.78884 -0.30979,-0.94467 -0.56325,-1.86929 -0.56325,-2.05472 0,-0.18542 0.0926,-0.60891 0.20575,-0.94107 0.34553,-1.01422 0.36868,-1.28572 0.13422,-1.57418 -0.19466,-0.23949 -0.28211,-0.25627 -1.18958,-0.2283 l -0.97948,0.0302 -0.67855,-0.70041 c -0.87806,-0.90634 -2.55965,-2.97569 -2.80735,-3.45467 -0.15865,-0.30681 -0.19468,-0.70573 -0.20355,-2.25404 -0.0131,-2.29326 0.0515,-2.19298 -1.66188,-2.57934 -0.41439,-0.0934 -0.63279,-0.48254 -1.1246,-2.003476 -0.46203,-1.42885 -0.89447,-2.1299 -1.37513,-2.22933 -0.17453,-0.0361 -0.88172,0.0165 -1.57153,0.11694 -1.51433,0.22043 -1.60074,0.18992 -2.34935,-0.82963 -0.28346,-0.38607 -0.61176,-0.73252 -0.72954,-0.76991 -0.11779,-0.0374 -0.71403,-0.0322 -1.325,0.0115 l -1.11084,0.0795 -0.63686,-0.665028 c -0.35028,-0.365768 -0.8128,-0.8617 -1.02783,-1.102074 -0.28559,-0.319257 -0.6658,-0.550937 -1.41075,-0.859655 -0.56089,-0.232437 -1.09675,-0.508667 -1.1908,-0.613844 -0.0941,-0.105175 -0.25048,-0.467696 -0.34761,-0.805601 -0.18445,-0.641654 -0.51365,-3.433445 -0.51365,-4.355996 0,-0.875861 -0.15897,-0.979893 -1.72586,-1.129369 -0.77159,-0.07361 -2.25643,-0.103391 -3.51867,-0.07058 -1.85787,0.04829 -2.34427,0.09889 -3.25933,0.33901 -1.32408,0.347454 -1.50272,0.438777 -2.6665,1.363163 -1.24127,0.985943 -1.40751,1.061183 -2.34463,1.061183 -1.21906,0 -2.79704,0.200419 -4.63684,0.58893 -2.21906,0.468593 -2.52681,0.457655 -3.90963,-0.138964 -1.36229,-0.587761 -1.84863,-0.64471 -3.03957,-0.355912 -1.60722,0.389747 -1.91212,0.137519 -2.44701,-2.024312 -0.31695,-1.281006 -0.63163,-1.931265 -0.97983,-2.024729 -0.3857,-0.103526 -1.75524,-0.07506 -2.735506,0.05687 -0.77317,0.104053 -1.00064,0.09537 -1.46297,-0.05585 -0.79507,-0.260056 -1.35082,-0.230529 -1.80147,0.09571 -1.0309,0.746313 -1.65195,0.882343 -2.72188,0.596181 -0.48374,-0.129382 -0.51479,-0.122518 -0.83538,0.184626 -0.41808,0.400547 -2.07543,2.816979 -2.31937,3.381668 -0.12128,0.280737 -0.18708,0.776846 -0.19669,1.48304 -0.0142,1.046417 -0.0225,1.077175 -0.5974,2.209948 -0.32064,0.631823 -0.6554,1.46122 -0.74393,1.843112 -0.19946,0.860483 -0.57874,1.253483 -1.10925,1.149403 -0.96324,-0.18897 -1.98083,-0.19224 -3.14205,-0.0101 -0.67342,0.10563 -1.50087,0.18122 -1.83878,0.16798 -1.95247,-0.0765 -2.78682,-0.0332 -3.79792,0.19732 -0.58365,0.13305 -1.46217,0.31843 -1.95228,0.41194 -0.49009,0.0935 -1.11843,0.28641 -1.39629,0.42865 l -0.50521,0.2586 -0.3007,1.50275 c -0.1654,0.826506 -0.47496,2.876036 -0.68793,4.554506 -0.41671,3.28417 -0.44131,3.3635 -1.13373,3.65464 -0.18432,0.0775 -0.73725,0.17641 -1.22874,0.21979 -1.06129,0.0937 -1.72181,0.35311 -2.04126,0.80174 -0.31643,0.44439 -1.11515,2.46941 -1.3798,3.49828 -0.11852,0.46079 -0.26643,1.46612 -0.32868,2.23408 l -0.11318,1.3963 -0.61248,0.62032 c -0.71972,0.72893 -1.44366,1.18823 -2.73756,1.73687 -0.51778,0.21954 -1.27427,0.54005 -1.6811,0.71223 -0.92871,0.39307 -1.56816,0.50729 -1.88643,0.33695 -0.26284,-0.14067 -0.55743,-0.73967 -0.55743,-1.13345 0,-1.02342 -1.92966,-2.99456 -7.38549,-7.54426 -0.93367,-0.77859 -1.48345,-1.37476 -1.76832,-1.91749 -0.1915,-0.36484 -0.0228,-0.97547 0.6952,-2.5162 0.86156,-1.84883 0.81176,-2.45308 -0.31054,-3.76789 -0.81106,-0.95017 -1.0973,-1.64152 -1.15183,-2.781916 -0.0563,-1.17778 0.0951,-1.75981 0.93626,-3.598433 1.10254,-2.410026 1.14225,-2.853012 0.45329,-5.056645 -0.2305,-0.737243 -0.46114,-1.667177 -0.51255,-2.066517 -0.0821,-0.638033 -0.0624,-0.795632 0.16263,-1.299724 0.28642,-0.641561 1.10896,-1.899036 2.08471,-3.187014 0.68854,-0.908868 0.68917,-0.909215 1.89712,-1.04211 0.34639,-0.03811 0.70511,-0.129204 0.79715,-0.202438 0.21041,-0.167412 0.52552,-1.147172 1.01284,-3.149152 0.47002,-1.930932 1.23541,-4.382323 1.47401,-4.720971 0.098,-0.139057 0.38845,-0.359897 0.6455,-0.49076 0.92224,-0.469506 4.92151,-3.351612 5.3379,-3.846801 0.21623,-0.257143 0.40675,-0.613444 0.93132,-1.741628 0.37014,-0.79607 0.46212,-0.902671 1.26414,-1.465061 1.84451,-1.293405 3.68822,-2.174166 4.94213,-2.360903 1.00879,-0.150231 1.13917,-0.204317 1.82023,-0.755063 1.05242,-0.851061 1.29378,-0.942285 2.06931,-0.782103 0.35491,0.07331 1.22091,0.367675 1.92446,0.654156 1.66574,0.678278 2.63071,0.776123 3.36736,0.341442 0.26455,-0.15611 0.97802,-0.816737 1.58548,-1.468062 1.24536,-1.335281 1.6365,-1.569974 3.64163,-2.185069 1.5309,-0.469617 1.82617,-0.434949 3.16009,0.371022 0.56655,0.342318 1.27753,0.731518 1.57995,0.864889 0.86248,0.38037 1.52954,0.268724 4.02999,-0.674503 2.52628,-0.95297 3.42224,-1.214548 4.47059,-1.30521 0.747206,-0.06462 0.823936,-0.04797 1.619696,0.351515 1.8954,0.951513 3.67036,2.289611 4.33844,3.270638 0.5783,0.849202 0.82327,1.052656 1.26544,1.050976 0.83188,-0.0032 4.78211,-2.558698 4.78211,-3.093707 0,-0.259831 0.55178,-0.817623 0.88015,-0.889746 0.6187,-0.135887 3.06339,0.989727 3.87527,1.784297 0.35847,0.350827 0.48575,0.582089 0.59249,1.076492 0.22428,1.038844 0.22721,1.039939 2.90171,1.083087 2.59876,0.04193 5.31269,-0.127711 5.88786,-0.368032 1.08127,-0.451784 1.62887,-1.194488 2.78762,-3.780798 0.46265,-1.032653 0.96286,-2.070283 1.11157,-2.305847 0.35654,-0.564806 0.90418,-0.944779 1.3437,-0.93232 0.52066,0.01476 1.66003,0.620067 9.10405,4.83666 1.81239,1.026613 3.89846,2.187898 4.6357,2.580637 1.5326,0.816438 2.22608,1.432015 3.22912,2.866385 0.35508,0.507775 0.73811,0.972741 0.85119,1.033259 0.27583,0.147621 1.18106,0.13984 1.48429,-0.01275 0.13419,-0.06753 0.65576,-0.401362 1.15903,-0.741844 0.72589,-0.491088 1.03012,-0.630119 1.47174,-0.672552 0.75823,-0.07286 0.99746,0.181123 1.39641,1.482531 0.16929,0.552273 0.40759,1.331159 0.52955,1.730857 0.12195,0.399701 0.53354,1.264219 0.91464,1.92115 0.3811,0.656934 1.01964,1.786948 1.41898,2.511145 0.83966,1.522695 1.52365,2.301774 2.17822,2.481019 0.29577,0.08099 1.12697,0.09803 2.45885,0.0504 2.85331,-0.102033 3.04291,0.0182 2.78388,1.765118 -0.0788,0.531349 -0.19856,1.963949 -0.26617,3.183554 -0.0676,1.219605 -0.17033,2.569331 -0.22825,2.999391 -0.13514,1.003519 -0.13718,2.886921 -0.004,3.462811 0.2009,0.86705 0.81929,1.018182 2.69932,0.659704 1.29948,-0.24778 2.1002,-0.175279 2.66262,0.241093 1.57873,1.168758 3.61018,2.794641 4.11343,3.292227 0.98278,0.971687 1.2304,1.675754 1.53068,4.352298 0.19607,1.74766 0.44259,3.013146 0.67619,3.471156 0.17809,0.3492 0.52439,0.70694 1.64785,1.70231 0.8196,0.72615 0.85912,0.78325 0.85912,1.24108 0,0.64 -0.35117,1.15451 -2.29303,3.35952 -1.67912,1.90667 -1.94592,2.47074 -1.94925,4.12095 -0.004,1.74664 0.39648,5.1842 0.72931,6.26748 0.32904,1.07095 0.33564,1.22251 0.0651,1.49308 -0.25612,0.25612 -0.64838,0.31381 -3.19848,0.47037 l -2.01066,0.12344 -1.99222,0.72127 c -3.87483,1.40285 -5.24531,2.07031 -7.9494,3.87153 -2.59955,1.73158 -3.24657,1.95075 -3.96768,1.34398 z"
       id="path1217" />
  </g>
</svg>
