<?xml version="1.0" encoding="UTF-8" standalone="no"?>
<!-- Created with Inkscape (http://www.inkscape.org/) -->

<svg
   width="100mm"
   height="100mm"
   viewBox="0 0 210 297"
   version="1.1"
   id="svg23115"
   inkscape:version="1.1 (c68e22c387, 2021-05-23)"
   sodipodi:docname="serre.svg"
   xmlns:inkscape="http://www.inkscape.org/namespaces/inkscape"
   xmlns:sodipodi="http://sodipodi.sourceforge.net/DTD/sodipodi-0.dtd"
   xmlns="http://www.w3.org/2000/svg"
   xmlns:svg="http://www.w3.org/2000/svg">
  <sodipodi:namedview
     id="namedview23117"
     pagecolor="#ffffff"
     bordercolor="#999999"
     borderopacity="1"
     inkscape:pageshadow="0"
     inkscape:pageopacity="0"
     inkscape:pagecheckerboard="0"
     inkscape:document-units="mm"
     showgrid="false"
     inkscape:zoom="0.99674932"
     inkscape:cx="309.00447"
     inkscape:cy="355.65612"
     inkscape:window-width="1920"
     inkscape:window-height="1001"
     inkscape:window-x="-9"
     inkscape:window-y="-9"
     inkscape:window-maximized="1"
     inkscape:current-layer="layer1" />
  <defs
     id="defs23112" />
  <g
     inkscape:label="Calque 1"
     inkscape:groupmode="layer"
     id="layer1">
    <path
       style="opacity:0.995475;fill:#d2fcfa;fill-opacity:1;stroke:#000000;stroke-width:0;stroke-miterlimit:4;stroke-dasharray:none;stroke-opacity:1"
       d="M 106.89465,91.81705 94.072673,86.898832 89.871132,83.048698 C 86.323378,79.797676 70.004117,65.059378 65.821094,61.32856 65.114807,60.698627 64.695431,60.244441 64.889145,60.319258 67.536783,61.341832 134.12,87.806086 134.32748,87.918314 c 0.17399,0.0941 -0.47537,0.606275 -1.64365,1.296418 -1.06219,0.627471 -4.24762,2.587499 -7.07872,4.355621 -2.8311,1.768119 -5.31418,3.203545 -5.51796,3.189839 -0.20378,-0.01371 -6.14041,-2.238124 -13.1925,-4.943142 z"
       id="path40812" />
    <path
       style="opacity:0.995475;fill:#d2fcf8;fill-opacity:0.68;stroke:#000000;stroke-width:1.6;stroke-miterlimit:4;stroke-dasharray:none;stroke-opacity:1"
       d="M 134.91085,150.55072 C 115.85479,142.76968 98.54244,135.70035 96.438971,134.8411 l -3.824482,-1.56225 0.250543,-18.52616 c 0.137805,-10.18939 0.345096,-20.486885 0.460662,-22.883316 l 0.210108,-4.357151 37.449448,14.411257 c 20.5972,7.92621 37.50754,14.46885 37.57856,14.53921 0.093,0.0921 1.49901,45.01966 1.49901,47.89998 0,0.19897 -0.11352,0.35584 -0.25229,0.34858 -0.13875,-0.007 -15.8436,-6.37948 -34.89968,-14.16053 z"
       id="path35574" />
    <path
       style="opacity:0.995475;fill:#d2fcf8;fill-opacity:0.68;stroke:#000000;stroke-width:0.92976379;stroke-miterlimit:4;stroke-dasharray:none;stroke-opacity:1"
       d="m 69.350211,419.33738 c 0.199371,-48.31951 0.476554,-87.88513 0.615961,-87.9236 0.346634,-0.0957 122.708108,1.33561 208.927008,2.44382 l 70.69812,0.90871 -0.77814,31.57249 c -0.42798,17.36488 -1.13819,55.4852 -1.57823,84.71184 l -0.80009,53.13935 -49.40911,0.74488 c -27.175,0.40969 -89.60061,1.08493 -138.72356,1.50054 l -89.314453,0.75563 z"
       id="path36155"
       transform="scale(0.26458333)" />
    <path
       style="fill:none;stroke:#000000;stroke-width:1.6;stroke-linecap:butt;stroke-linejoin:miter;stroke-opacity:1;stroke-miterlimit:4;stroke-dasharray:none"
       d="m 93.371727,87.608036 -0.75724,46.366444 v 0"
       id="path29496" />
    <path
       style="fill:none;stroke:#000000;stroke-width:1.6;stroke-linecap:butt;stroke-linejoin:miter;stroke-opacity:1;stroke-miterlimit:4;stroke-dasharray:none"
       d="m 17.40294,86.712244 75.968787,0.895794 v 0"
       id="path29379" />
    <rect
       style="opacity:1;fill:#21ad28;fill-opacity:1;stroke:#000000;stroke-width:1.56124;stroke-miterlimit:4;stroke-dasharray:none"
       id="rect28790"
       width="83.320229"
       height="75.327538"
       x="346.961"
       y="228.25261"
       transform="matrix(0.92476908,0.38052877,-0.99996366,0.00852493,0,0)" />
    <g
       id="g36872"
       transform="translate(-155.74386,-41.264858)">
      <rect
         style="fill:#563a20;fill-opacity:1;stroke:#b48652;stroke-width:0.878356;stroke-miterlimit:4;stroke-dasharray:none;stroke-opacity:1"
         id="rect36354"
         width="30.2076"
         height="20.959633"
         x="508.72476"
         y="226.74637"
         transform="matrix(0.93370641,0.35803957,-0.99953631,-0.03044925,0,0)" />
      <rect
         style="fill:#9d764b;fill-opacity:1;stroke:#92764b;stroke-width:0.308603;stroke-miterlimit:4;stroke-dasharray:none;stroke-opacity:1"
         id="rect36356"
         width="30.300312"
         height="7.7444448"
         x="232.76457"
         y="90.653549"
         transform="matrix(0.93167226,0.36329986,0.11635636,0.99320753,0,0)" />
      <rect
         style="fill:#b48652;fill-opacity:1;stroke:#b48652;stroke-width:0.559154;stroke-miterlimit:4;stroke-dasharray:none;stroke-opacity:1"
         id="rect36358"
         width="21.144012"
         height="7.6071658"
         x="241.10902"
         y="179.74239"
         transform="matrix(0.99965479,0.02627342,0.08011944,0.99678527,0,0)"
         ry="0" />
    </g>
    <g
       id="g31734"
       transform="matrix(0.67463743,0.01705172,0.02138667,0.59011547,-44.123079,114.41169)">
      <rect
         style="fill:#563a20;fill-opacity:1;stroke:#b48652;stroke-width:1.30017;stroke-miterlimit:4;stroke-dasharray:none;stroke-opacity:1"
         id="rect31728"
         width="44.68087"
         height="31.048292"
         x="74.707695"
         y="-81.465538"
         transform="matrix(0.92353788,0.38350722,-0.99998237,-0.00593751,0,0)" />
      <rect
         style="fill:#b48652;fill-opacity:1;stroke:#b48652;stroke-width:0.487101;stroke-miterlimit:4;stroke-dasharray:none;stroke-opacity:1"
         id="rect31730"
         width="44.831268"
         height="13.040517"
         x="131.36163"
         y="-22.268717"
         transform="matrix(0.92103368,0.38948294,0.07080575,0.99749012,0,0)" />
      <rect
         style="fill:#b48652;fill-opacity:1;stroke:#b48652;stroke-width:0.884434;stroke-miterlimit:4;stroke-dasharray:none;stroke-opacity:1"
         id="rect31732"
         width="31.329355"
         height="12.84479"
         x="158.61322"
         y="46.085625"
         transform="matrix(0.99999934,0.00115245,0.03865638,0.99925256,0,0)"
         ry="0" />
    </g>
    <path
       id="rect26228"
       style="fill:#d2fcf8;fill-opacity:0.684783;stroke:#000000;stroke-width:1.60371;stroke-miterlimit:4;stroke-dasharray:none"
       d="m 89.146793,117.35139 -0.0997,48.11386 80.619357,0.21497 0.10025,-48.11386 z m 24.973657,15.69 h 33.59589 v 32.48225 h -33.59589 z" />
    <path
       style="fill:#d2fcf8;fill-opacity:0.684783;stroke:#000000;stroke-width:1.6;stroke-miterlimit:4;stroke-dasharray:none"
       d="m 43.552754,86.759632 -26.149779,-0.0477 22.124059,-14.29154 c 12.16823,-7.860346 22.16469,-14.291539 22.21435,-14.291539 0.0956,0 29.27432,26.578099 30.69629,27.960399 l 0.83281,0.80958 -11.78397,-0.0458 c -6.48118,-0.0252 -23.55137,-0.0672 -37.93376,-0.0934 z"
       id="path26770" />
    <rect
       style="fill:#d2fcf8;fill-opacity:0.68;stroke:#000000;stroke-width:1.66951;stroke-miterlimit:4;stroke-dasharray:none"
       id="rect23198"
       width="78.012505"
       height="47.882938"
       x="19.127274"
       y="79.199898"
       transform="matrix(0.919645,0.39275064,-0.00236522,0.9999972,0,0)" />
    <path
       style="fill:none;stroke:#000000;stroke-width:1.6;stroke-linecap:butt;stroke-linejoin:miter;stroke-opacity:1;stroke-miterlimit:4;stroke-dasharray:none"
       d="M 17.40294,86.712244 17.289696,134.61664"
       id="path36036" />
    <path
       style="fill:none;stroke:#000000;stroke-width:1.6;stroke-linecap:butt;stroke-linejoin:miter;stroke-opacity:1;stroke-miterlimit:4;stroke-dasharray:none"
       d="m 89.146786,117.35139 79.505824,-0.60963"
       id="path40617" />
    <path
       style="fill:none;stroke:#000000;stroke-width:1.6;stroke-linecap:butt;stroke-linejoin:miter;stroke-opacity:1;stroke-miterlimit:4;stroke-dasharray:none"
       d="m 109.82031,76.597358 35.29938,30.223652"
       id="path40968" />
    <path
       style="fill:#d2fcf8;fill-opacity:0.684783;stroke:#000000;stroke-width:1.61547;stroke-miterlimit:4;stroke-dasharray:none"
       d="m 117.89422,116.58888 -26.683638,-0.0477 22.575728,-14.27782 c 12.41665,-7.852794 22.61719,-14.277811 22.66787,-14.277811 0.0975,0 29.87197,26.552571 31.32297,27.933551 l 0.84981,0.8088 -12.02455,-0.0458 c -6.61349,-0.0252 -24.03218,-0.0671 -38.70819,-0.0933 z"
       id="path40699" />
    <path
       style="fill:none;stroke:#000000;stroke-width:1.6;stroke-linecap:butt;stroke-linejoin:miter;stroke-opacity:1;stroke-miterlimit:4;stroke-dasharray:none"
       d="M 62.985176,58.370877 136.12181,87.671673"
       id="path40734" />
    <path
       style="fill:none;stroke:#000000;stroke-width:1.6;stroke-linecap:butt;stroke-linejoin:miter;stroke-opacity:1;stroke-miterlimit:4;stroke-dasharray:none"
       d="M 83.288091,65.984471 111.2046,94.131692"
       id="path40970" />
    <rect
       style="fill:#d2fcf8;fill-opacity:0.684783;stroke:#000000;stroke-width:1.91506;stroke-miterlimit:4;stroke-dasharray:none"
       id="rect26332"
       width="55.330608"
       height="76.921349"
       x="35.44281"
       y="-179.25845"
       transform="matrix(-0.84902604,0.528351,-0.92195854,-0.38728858,0,0)" />
    <path
       style="fill:none;stroke:#000000;stroke-width:1.6;stroke-linecap:butt;stroke-linejoin:miter;stroke-opacity:1;stroke-miterlimit:4;stroke-dasharray:none"
       d="M 41.990118,98.745991 83.288091,65.984471"
       id="path40964" />
    <path
       style="fill:none;stroke:#000000;stroke-width:1.6;stroke-linecap:butt;stroke-linejoin:miter;stroke-opacity:1;stroke-miterlimit:4;stroke-dasharray:none"
       d="M 68.75305,109.12816 109.82031,76.597358"
       id="path40966" />
    <path
       id="path41085"
       style="fill:#309b0d;fill-opacity:1;stroke:#309b0d;stroke-width:0.264583px;stroke-linecap:butt;stroke-linejoin:miter;stroke-opacity:1"
       d="m 48.408389,133.62263 v 1.84537 z m -1.19011,0.0507 a 0.8098856,0.34436052 0 0 0 -0.81028,0.34416 0.8098856,0.34436052 0 0 0 0.81028,0.34469 0.8098856,0.34436052 0 0 0 0.80977,-0.34469 0.8098856,0.34436052 0 0 0 -0.80977,-0.34416 z m 2.42001,0 a 0.8098856,0.34436052 0 0 0 -0.80977,0.34416 0.8098856,0.34436052 0 0 0 0.80977,0.34469 0.8098856,0.34436052 0 0 0 0.80977,-0.34469 0.8098856,0.34436052 0 0 0 -0.80977,-0.34416 z" />
    <path
       id="path41944"
       style="fill:#309b0d;fill-opacity:1;stroke:#309b0d;stroke-width:0.264583px;stroke-linecap:butt;stroke-linejoin:miter;stroke-opacity:1"
       d="m 59.195726,134.11939 v 1.84537 z m -1.19011,0.0507 a 0.8098856,0.34436052 0 0 0 -0.81028,0.34416 0.8098856,0.34436052 0 0 0 0.81028,0.34469 0.8098856,0.34436052 0 0 0 0.80977,-0.34469 0.8098856,0.34436052 0 0 0 -0.80977,-0.34416 z m 2.42001,0 a 0.8098856,0.34436052 0 0 0 -0.80977,0.34416 0.8098856,0.34436052 0 0 0 0.80977,0.34469 0.8098856,0.34436052 0 0 0 0.80977,-0.34469 0.8098856,0.34436052 0 0 0 -0.80977,-0.34416 z" />
    <path
       id="path41946"
       style="fill:#309b0d;fill-opacity:1;stroke:#309b0d;stroke-width:0.264583px;stroke-linecap:butt;stroke-linejoin:miter;stroke-opacity:1"
       d="m 62.840043,139.47198 v 1.84537 z m -1.19011,0.0507 a 0.8098856,0.34436052 0 0 0 -0.81028,0.34416 0.8098856,0.34436052 0 0 0 0.81028,0.34469 0.8098856,0.34436052 0 0 0 0.80977,-0.34469 0.8098856,0.34436052 0 0 0 -0.80977,-0.34416 z m 2.42001,0 a 0.8098856,0.34436052 0 0 0 -0.80977,0.34416 0.8098856,0.34436052 0 0 0 0.80977,0.34469 0.8098856,0.34436052 0 0 0 0.80977,-0.34469 0.8098856,0.34436052 0 0 0 -0.80977,-0.34416 z" />
    <path
       id="path41948"
       style="fill:#309b0d;fill-opacity:1;stroke:#309b0d;stroke-width:0.264583px;stroke-linecap:butt;stroke-linejoin:miter;stroke-opacity:1"
       d="m 72.565668,139.18274 v 1.84537 z m -1.19011,0.0507 a 0.8098856,0.34436052 0 0 0 -0.81028,0.34416 0.8098856,0.34436052 0 0 0 0.81028,0.34469 0.8098856,0.34436052 0 0 0 0.80977,-0.34469 0.8098856,0.34436052 0 0 0 -0.80977,-0.34416 z m 2.42001,0 a 0.8098856,0.34436052 0 0 0 -0.80977,0.34416 0.8098856,0.34436052 0 0 0 0.80977,0.34469 0.8098856,0.34436052 0 0 0 0.80977,-0.34469 0.8098856,0.34436052 0 0 0 -0.80977,-0.34416 z" />
    <path
       id="path41950"
       style="fill:#309b0d;fill-opacity:1;stroke:#309b0d;stroke-width:0.264583px;stroke-linecap:butt;stroke-linejoin:miter;stroke-opacity:1"
       d="m 83.043079,133.94403 v 1.84537 z m -1.19011,0.0507 a 0.8098856,0.34436052 0 0 0 -0.81028,0.34416 0.8098856,0.34436052 0 0 0 0.81028,0.34469 0.8098856,0.34436052 0 0 0 0.80977,-0.34469 0.8098856,0.34436052 0 0 0 -0.80977,-0.34416 z m 2.42001,0 a 0.8098856,0.34436052 0 0 0 -0.80977,0.34416 0.8098856,0.34436052 0 0 0 0.80977,0.34469 0.8098856,0.34436052 0 0 0 0.80977,-0.34469 0.8098856,0.34436052 0 0 0 -0.80977,-0.34416 z" />
    <path
       id="path41952"
       style="fill:#309b0d;fill-opacity:1;stroke:#309b0d;stroke-width:0.264583px;stroke-linecap:butt;stroke-linejoin:miter;stroke-opacity:1"
       d="m 92.614489,133.97448 v 1.84537 z m -1.19011,0.0507 a 0.8098856,0.34436052 0 0 0 -0.81028,0.34416 0.8098856,0.34436052 0 0 0 0.81028,0.34469 0.8098856,0.34436052 0 0 0 0.80977,-0.34469 0.8098856,0.34436052 0 0 0 -0.80977,-0.34416 z m 2.42001,0 a 0.8098856,0.34436052 0 0 0 -0.80977,0.34416 0.8098856,0.34436052 0 0 0 0.80977,0.34469 0.8098856,0.34436052 0 0 0 0.80977,-0.34469 0.8098856,0.34436052 0 0 0 -0.80977,-0.34416 z" />
    <path
       id="path41954"
       style="fill:#309b0d;fill-opacity:1;stroke:#309b0d;stroke-width:0.264583px;stroke-linecap:butt;stroke-linejoin:miter;stroke-opacity:1"
       d="m 95.233842,138.18822 v 1.84537 z m -1.19011,0.0507 a 0.8098856,0.34436052 0 0 0 -0.81028,0.34416 0.8098856,0.34436052 0 0 0 0.81028,0.34469 0.8098856,0.34436052 0 0 0 0.80977,-0.34469 0.8098856,0.34436052 0 0 0 -0.80977,-0.34416 z m 2.42001,0 a 0.8098856,0.34436052 0 0 0 -0.80977,0.34416 0.8098856,0.34436052 0 0 0 0.80977,0.34469 0.8098856,0.34436052 0 0 0 0.80977,-0.34469 0.8098856,0.34436052 0 0 0 -0.80977,-0.34416 z" />
    <path
       id="path41956"
       style="fill:#309b0d;fill-opacity:1;stroke:#309b0d;stroke-width:0.264583px;stroke-linecap:butt;stroke-linejoin:miter;stroke-opacity:1"
       d="m 105.48348,139.66872 v 1.84537 z m -1.19011,0.0507 a 0.8098856,0.34436052 0 0 0 -0.81028,0.34416 0.8098856,0.34436052 0 0 0 0.81028,0.34469 0.8098856,0.34436052 0 0 0 0.80977,-0.34469 0.8098856,0.34436052 0 0 0 -0.80977,-0.34416 z m 2.42001,0 a 0.8098856,0.34436052 0 0 0 -0.80977,0.34416 0.8098856,0.34436052 0 0 0 0.80977,0.34469 0.8098856,0.34436052 0 0 0 0.80977,-0.34469 0.8098856,0.34436052 0 0 0 -0.80977,-0.34416 z" />
  </g>
</svg>
