<?xml version="1.0" encoding="UTF-8" standalone="no"?>
<!-- Created with Inkscape (http://www.inkscape.org/) -->

<svg
   width="210mm"
   height="297mm"
   viewBox="0 0 210 297"
   version="1.1"
   id="svg1445"
   inkscape:version="1.1 (c68e22c387, 2021-05-23)"
   sodipodi:docname="thermometre.svg"
   xmlns:inkscape="http://www.inkscape.org/namespaces/inkscape"
   xmlns:sodipodi="http://sodipodi.sourceforge.net/DTD/sodipodi-0.dtd"
   xmlns="http://www.w3.org/2000/svg"
   xmlns:svg="http://www.w3.org/2000/svg">
  <sodipodi:namedview
     id="namedview1447"
     pagecolor="#ffffff"
     bordercolor="#999999"
     borderopacity="1"
     inkscape:pageshadow="0"
     inkscape:pageopacity="0"
     inkscape:pagecheckerboard="0"
     inkscape:document-units="mm"
     showgrid="false"
     inkscape:zoom="1.5861561"
     inkscape:cx="397.18664"
     inkscape:cy="591.05154"
     inkscape:window-width="1920"
     inkscape:window-height="1001"
     inkscape:window-x="-9"
     inkscape:window-y="-9"
     inkscape:window-maximized="1"
     inkscape:current-layer="layer1" />
  <defs
     id="defs1442" />
  <g
     inkscape:label="Calque 1"
     inkscape:groupmode="layer"
     id="layer1">
    <path
       id="path1528"
       style="fill:#280b0b;fill-opacity:0.00389105;stroke:#000000;stroke-width:7.55906;stroke-miterlimit:4;stroke-dasharray:none"
       d="M 400.39258 353.42188 C 383.9775 353.42188 370.76367 366.63766 370.76367 383.05273 L 370.76367 683.71484 A 68.429462 64.973426 0 0 0 331.7793 742.35547 A 68.429462 64.973426 0 0 0 400.20898 807.33008 A 68.429462 64.973426 0 0 0 468.63867 742.35547 A 68.429462 64.973426 0 0 0 430.02344 683.87891 L 430.02344 383.05273 C 430.02344 366.63766 416.80765 353.42188 400.39258 353.42188 z M 432.82031 468.31445 L 463.92188 468.31445 L 432.82031 468.31445 z M 432.48047 543.97656 L 463.58203 543.97656 L 432.48047 543.97656 z M 433.06836 615.56641 L 464.16992 615.56641 L 433.06836 615.56641 z "
       transform="scale(0.26458333)" />
  </g>
</svg>
